<svg width="810" height="316" viewBox="0 0 810 316" fill="none" xmlns="http://www.w3.org/2000/svg">
<g clip-path="url(#clip0_132_468)">
<path d="M0 25.4265C0 25.4265 0 36.052 2.65356 38.819C5.30713 41.586 9.5086 44.021 10.6143 45.6813C11.7199 47.3415 14.2629 49.9978 15.4791 51.7688C16.6953 53.5397 20.2334 55.1999 21.1179 56.5281C22.0025 57.8563 22.2236 61.6194 23.8821 61.6194C25.5405 61.6194 29.2998 61.066 31.0688 61.6194C32.8378 62.1728 35.602 65.4933 37.0393 67.9283C38.4767 70.3633 37.4816 72.6876 38.8084 73.573C40.1351 74.4585 42.2359 73.573 42.8993 75.0119C43.5627 76.4508 43.3415 84.7519 45.2211 85.6373C47.1007 86.5228 49.312 86.6335 51.3022 86.8548C53.2924 87.0762 55.8354 88.4044 56.0565 89.2898C56.2776 90.1753 55.6143 95.488 57.0516 96.1521C58.4889 96.8162 61.5848 94.0491 62.6904 94.6026C63.7961 95.156 62.027 97.4803 62.6904 99.1405C63.3538 100.801 65.4546 103.236 66.5602 105.228C67.6659 107.22 69.7666 115.743 69.9877 117.071C70.2088 118.399 69.7666 122.494 71.5356 122.273C73.3047 122.052 76.0688 122.273 78.3907 122.273C80.7125 122.273 82.9238 124.155 82.4816 126.147C82.0393 128.139 82.9238 131.57 84.6929 132.345C86.4619 133.12 91.7691 137.326 92.6536 138.875C93.5381 140.425 91.3268 143.413 92.6536 144.852C93.9803 146.291 95.6388 150.054 97.4079 151.825C99.1769 153.596 101.941 155.92 101.499 158.466C101.057 161.012 100.061 164.775 101.609 165.992C103.157 167.21 106.253 168.87 107.469 170.53C108.686 172.19 109.017 178.057 111.339 179.163C113.661 180.27 116.978 183.923 119.521 185.029C122.064 186.136 124.939 187.132 125.381 188.461C125.823 189.789 127.924 195.766 129.251 196.43C130.577 197.094 134.447 199.861 137.432 201.632C140.418 203.403 141.302 206.834 143.292 207.83C145.283 208.826 148.821 210.929 151.695 212.368C154.57 213.807 155.123 216.906 156.228 218.013L164.631 225.76C166.953 227.753 167.838 229.856 168.943 229.413C170.049 228.97 167.396 224.875 167.396 223.215C167.396 221.554 167.285 219.119 169.275 220.116C171.265 221.112 173.256 225.096 174.914 224.875C176.572 224.654 177.568 221.222 178.784 220.558C180 219.894 180.553 217.349 181.99 218.234C183.428 219.119 183.096 222.772 183.98 224.211C184.865 225.65 186.966 226.867 187.85 225.982C188.735 225.096 190.614 219.341 190.393 213.917C190.172 208.494 188.735 201.853 188.514 199.418C188.292 196.983 188.292 193.884 190.393 192.556C192.494 191.228 191.499 189.346 190.393 188.018C189.287 186.69 190.504 184.365 191.609 182.594C192.715 180.824 194.595 176.175 191.609 174.847C188.964 173.462 186.889 171.189 185.749 168.427C185.086 166.656 184.423 166.435 182.654 165.55C180.885 164.664 176.02 165.549 174.029 164.553C172.039 163.557 170.602 165.992 170.16 166.878C169.717 167.763 167.617 165.771 168.28 164.775C168.943 163.779 172.371 161.676 171.708 160.237C171.044 158.798 170.16 159.351 168.501 159.13C166.843 158.909 166.732 157.58 166.29 156.142C165.848 154.703 163.968 153.707 163.747 152.046C163.415 150.105 163.415 148.121 163.747 146.18C164.189 144.852 163.526 141.642 161.314 141.642C159.103 141.642 156.007 142.306 153.575 141.642C150.943 140.848 148.575 139.356 146.72 137.326C145.835 135.887 146.941 135.001 147.604 133.23C148.268 131.46 147.162 132.124 145.835 131.349C144.509 130.574 146.278 130.021 146.057 129.357C145.835 128.693 143.514 125.925 148.821 125.04C154.128 124.155 153.354 120.502 152.138 119.285C150.921 118.067 144.951 114.304 143.956 114.304C142.961 114.304 136.769 118.178 135.111 118.399C133.452 118.62 131.683 118.178 132.678 117.292C133.673 116.407 138.538 114.968 138.538 114.083C138.57 113.706 138.521 113.327 138.395 112.971C138.269 112.615 138.068 112.29 137.807 112.017C137.545 111.745 137.229 111.532 136.878 111.391C136.527 111.251 136.151 111.188 135.774 111.205C133.388 110.966 131.045 110.408 128.808 109.545C126.708 108.659 122.838 106.335 122.838 104.564C122.838 102.793 123.059 100.69 121.069 99.1405C119.079 97.591 117.862 95.488 115.098 95.9307C112.334 96.3735 109.902 96.3735 109.459 94.8239C109.017 93.2744 110.344 89.9539 108.354 87.5189C106.364 85.0839 104.926 83.6451 102.383 83.4237C99.8403 83.2023 100.172 86.0801 100.614 87.5189C101.057 88.9578 102.604 92.0569 101.499 91.8355C100.393 91.6142 98.2924 89.7326 96.6339 87.5189C94.9754 85.3053 91.9902 83.4237 91.769 81.3208C91.5479 79.2178 91.1057 76.1187 90.1106 75.676C89.1155 75.2333 89.4472 79.1071 87.8993 78.8858C86.3514 78.6644 85.1351 76.008 84.8034 74.1264C84.4717 72.2449 81.5971 69.3671 78.1695 67.7069C74.742 66.0467 69.8772 61.7301 67.7764 60.8446C65.9156 59.978 64.3423 58.5951 63.2432 56.8601C62.1376 55.4212 61.3636 55.0892 58.7101 53.8717C56.0565 52.6542 53.5135 51.1047 53.6241 50.5512C53.7346 49.9978 56.1671 49.2231 55.7248 48.0056C55.2826 46.7881 50.4177 44.6851 50.086 43.7997C49.7543 42.9142 50.1966 41.6967 49.7543 40.1472C49.312 38.5976 42.7887 33.5063 42.0147 32.3995C41.2408 31.2926 41.683 30.1858 40.5774 29.7431C39.4717 29.3004 37.8133 33.3956 36.5971 33.3956C35.3808 33.3956 33.7224 32.3995 32.1744 31.6247C30.6265 30.8499 27.973 30.1858 26.0934 30.6285C24.2138 31.0713 22.113 32.7315 20.8968 32.5101C19.6806 32.2888 13.8206 30.8499 13.0467 29.079C11.7847 26.8349 9.73611 25.1392 7.2973 24.3197C5.086 23.877 0 24.4304 0 25.4265Z" fill="#C2C2C2"/>
<path d="M23.4399 82.8703C24.1032 84.0878 19.9018 82.981 18.0222 81.9849C16.1426 80.9887 14.4841 78.4431 12.715 78.5537C10.946 78.6644 7.85017 76.8935 8.18187 76.0081C8.51356 75.1226 10.0615 71.9128 12.2728 72.5769C14.4841 73.241 14.1524 74.6799 15.8109 76.0081C17.4693 77.3362 22.6659 81.0994 23.4399 82.8703Z" fill="#C2C2C2"/>
<path d="M34.9387 99.2512C33.6119 99.8046 35.3809 102.572 36.9288 103.679C38.4768 104.785 41.2409 106.224 41.6831 107.663C42.1254 109.102 42.7888 111.98 43.8945 112.976C45.0001 113.972 45.9952 114.525 47.2114 113.751C48.4276 112.976 49.4227 108.327 49.5333 107.442C49.6438 106.556 46.3269 104.121 45.3318 103.346C44.3367 102.572 42.0148 97.8124 40.6881 97.8124C38.6993 97.9327 36.75 98.4206 34.9387 99.2512Z" fill="#C2C2C2"/>
<path d="M61.1426 140.646C59.7053 141.2 61.806 148.726 62.6905 149.39C63.575 150.054 71.7569 156.142 72.7519 155.699C73.747 155.256 70.4301 150.054 70.0984 148.173C69.7667 146.291 68.661 141.2 67.6659 140.646C65.5266 140.093 63.282 140.093 61.1426 140.646Z" fill="#C2C2C2"/>
<path d="M78.1697 159.905C77.7474 160.419 77.5166 161.065 77.5166 161.731C77.5166 162.397 77.7474 163.042 78.1697 163.557C79.3483 164.324 80.7494 164.675 82.15 164.553C82.8134 164.332 79.4964 158.909 78.1697 159.905Z" fill="#C2C2C2"/>
<path d="M86.2408 168.427C85.4668 169.423 84.4717 173.186 85.1351 173.519C85.7985 173.851 88.8943 173.186 89.5577 172.522C90.2211 171.858 86.9042 167.431 86.2408 168.427Z" fill="#C2C2C2"/>
<path d="M90.774 174.625C89.5578 174.957 92.3219 180.602 93.5381 180.049C94.7544 179.495 92.6536 174.072 90.774 174.625Z" fill="#C2C2C2"/>
<path d="M152.359 126.811C150.7 127.475 149.595 128.582 149.595 129.025C149.595 129.467 149.484 132.345 151.032 132.345C151.671 132.348 152.303 132.222 152.892 131.975C153.481 131.728 154.014 131.364 154.459 130.906C154.902 130.242 153.243 126.479 152.359 126.811Z" fill="#C2C2C2"/>
<path d="M163.968 121.498C163.636 122.826 165.074 124.487 165.406 125.483C165.737 126.479 163.526 127.364 163.968 128.25C164.41 129.135 165.074 130.574 166.401 130.242C167.727 129.91 168.17 128.692 170.381 129.578C172.592 130.463 174.582 130.353 175.135 129.578C175.688 128.803 173.808 126.368 172.039 125.925C170.27 125.483 166.29 122.384 165.406 121.498C164.521 120.613 164.189 120.502 163.968 121.498Z" fill="#C2C2C2"/>
<path d="M125.049 215.91C123.391 215.356 123.501 217.57 123.501 218.234C123.501 218.898 126.376 221.887 127.371 221.333C128.366 220.78 129.803 219.341 128.919 218.677C127.878 217.448 126.548 216.497 125.049 215.91Z" fill="#C2C2C2"/>
<path d="M176.462 159.794C176.794 158.134 181.106 156.363 181.437 155.699C181.769 155.035 181.437 153.264 181.437 152.378C181.437 151.493 183.428 150.386 184.312 150.718C185.197 151.05 186.855 155.699 187.74 155.256C188.624 154.813 187.518 150.165 188.624 149.833C189.73 149.501 192.826 149.833 193.157 151.05C193.489 152.268 193.378 156.142 194.595 156.806C195.811 157.47 195.921 160.901 196.032 162.229C196.143 163.557 198.133 166.103 199.128 166.214C200.123 166.324 202.224 166.324 203.219 166.988C204.214 167.652 206.315 166.988 206.315 168.317C206.315 169.645 204.435 170.862 204.103 171.526C203.772 172.19 204.546 172.854 205.098 174.515C205.651 176.175 205.319 178.499 203.772 178.389C202.224 178.278 198.133 173.961 196.032 173.629C193.931 173.297 191.167 172.412 190.504 171.526C189.84 170.641 191.278 169.534 191.388 168.317C191.499 167.099 189.84 165.992 188.624 164.553C187.408 163.114 189.73 162.118 188.624 161.344C187.518 160.569 182.985 161.122 181.106 161.344C179.226 161.565 176.351 160.569 176.462 159.794Z" fill="#C2C2C2"/>
<path d="M222.457 168.317C220.799 168.87 223.342 170.862 222.457 172.522C221.573 174.183 220.246 174.293 219.472 175.4C218.698 176.507 220.467 179.827 221.02 180.049C221.572 180.27 223.12 178.389 223.673 178.389C224.226 178.389 224.337 175.843 225.553 176.507C226.769 177.171 226.548 179.717 227.543 180.159C228.538 180.602 230.86 178.389 231.302 177.282C231.744 176.175 234.73 173.74 233.514 172.522C232.297 171.305 230.307 171.416 228.98 170.973C227.654 170.53 226.548 168.981 225.553 168.317C224.558 167.652 224.558 167.652 222.457 168.317Z" fill="#C2C2C2"/>
<path d="M113.44 87.7403C112.224 88.0724 110.676 88.7365 111.229 89.7326C111.781 90.7287 109.902 93.3851 111.118 93.7171C112.616 93.9938 114.153 93.9938 115.651 93.7171C116.425 93.4958 117.531 90.7287 117.42 89.8433C117.31 88.9578 114.656 87.2976 113.44 87.7403Z" fill="#C2C2C2"/>
<path d="M121.622 94.824C120.516 95.3774 120.074 96.4842 121.622 97.1483C123.17 97.8124 125.934 98.6979 126.708 99.5833C127.482 100.469 128.919 101.908 129.361 101.576C129.803 101.244 131.573 98.4765 131.13 97.8124C130.299 96.8782 129.228 96.1893 128.034 95.8201C126.773 95.4404 125.605 94.7993 124.607 93.9385C123.833 93.2745 122.506 94.3813 121.622 94.824Z" fill="#C2C2C2"/>
<path d="M127.039 102.24C125.934 101.354 124.828 101.797 124.607 103.014C124.386 104.232 126.155 106.335 127.039 106.446C128.455 106.524 129.873 106.374 131.241 106.003C132.125 105.671 128.366 103.346 127.039 102.24Z" fill="#C2C2C2"/>
<path d="M136.327 102.904C135.332 102.24 134.447 106.003 135.111 106.003C135.774 106.003 138.428 107.995 139.091 108.548C139.754 109.102 141.634 109.102 141.634 108.548C141.634 107.995 137.985 103.9 136.327 102.904Z" fill="#C2C2C2"/>
<path d="M144.177 107.663C143.182 107.663 143.845 110.209 144.84 110.762C145.835 111.315 147.604 110.873 148.157 111.537C148.71 112.201 148.268 110.319 148.157 109.545C148.047 108.77 146.278 107.663 144.177 107.663Z" fill="#C2C2C2"/>
<path d="M191.388 229.413C190.725 230.852 189.398 228.97 188.624 230.298C187.85 231.627 189.619 236.718 188.624 237.825C187.629 238.932 186.302 237.825 185.528 238.932C184.754 240.038 180.553 244.134 181.658 244.134C182.764 244.134 187.629 245.13 190.061 244.134C191.017 243.759 192.066 243.697 193.059 243.955C194.052 244.214 194.937 244.78 195.59 245.572C196.474 246.679 199.017 246.901 200.786 247.122C202.555 247.343 202.555 248.782 200.786 249.668C199.017 250.553 200.344 254.206 202.113 253.984C203.882 253.763 208.526 253.099 210.737 253.984C212.948 254.87 219.693 256.419 221.02 257.637C222.346 258.854 228.096 261.953 229.644 261.953C231.192 261.953 234.619 262.617 236.056 261.953C237.494 261.289 239.816 258.522 241.695 258.522C243.575 258.522 252.31 258.522 255.295 259.85C258.28 261.179 261.265 263.503 262.813 263.282C264.361 263.06 267.125 263.946 269.668 265.274C272.211 266.602 276.192 268.705 280.061 268.262C283.931 267.819 287.359 269.701 290.344 269.922C293.061 270.256 295.809 270.256 298.526 269.922C300.975 269.381 303.521 269.457 305.934 270.144C307.592 270.808 308.919 273.464 310.246 273.243C311.572 273.022 313.231 270.587 314.779 270.144C316.327 269.701 320.528 268.262 321.855 268.484C323.182 268.705 325.725 271.472 327.604 272.136C329.484 272.8 331.142 272.357 333.022 273.354C334.902 274.35 337.334 274.239 338.882 275.124C340.43 276.01 347.064 281.433 348.501 281.212C349.939 280.991 348.169 279.22 347.064 278.334C345.958 277.449 340.983 273.243 341.204 271.693C341.331 269.894 341.781 268.132 342.531 266.491C343.415 264.831 341.867 262.839 340.983 261.953C340.098 261.068 340.098 258.079 339.103 257.194C338.108 256.309 333.464 255.423 332.138 255.312C330.811 255.202 330.258 258.301 328.489 258.744C326.902 259.252 325.275 259.623 323.624 259.85C322.023 259.649 320.436 259.353 318.87 258.965C318.096 258.854 317.432 255.423 316.658 255.312C315.884 255.202 312.125 256.087 311.794 255.312C311.462 254.538 313.784 251.107 313.894 250.332C314.005 249.557 317.322 249.225 318.87 249.557C320.418 249.889 323.513 250.664 324.287 250.221C325.061 249.778 324.951 247.454 325.725 247.011C326.499 246.569 329.595 247.897 330.59 247.675C331.585 247.454 331.916 246.015 333.243 245.905C334.57 245.794 337.002 245.24 336.781 244.355C336.466 243.757 335.985 243.262 335.398 242.929C334.81 242.595 334.139 242.437 333.464 242.473C331.585 242.473 327.052 243.469 324.619 243.248L314.558 242.363C313.12 242.141 312.678 245.24 311.462 245.905C310.246 246.569 308.477 247.011 307.592 246.347C306.708 245.683 305.491 242.695 304.496 242.695C303.501 242.695 300.737 244.134 299.079 243.58C297.408 242.858 295.815 241.968 294.324 240.924C292.997 240.149 292.113 238.489 290.676 238.157C289.238 237.825 288.907 239.264 288.022 239.817C287.138 240.37 285.59 241.699 284.816 241.477C284.042 241.256 281.278 240.592 281.609 239.596C281.941 238.6 282.936 237.05 281.609 236.054C280.282 235.058 278.071 234.172 277.408 235.279C276.744 236.386 274.201 238.821 272.985 239.928C271.769 241.034 273.538 244.023 271.88 244.798C270.221 245.572 267.899 245.019 265.909 244.798C263.919 244.576 260.602 243.027 259.607 242.916C258.612 242.805 256.953 244.798 256.069 244.687C255.184 244.576 251.757 244.908 250.983 244.687C250.209 244.466 248.108 243.58 247.555 242.805C247.002 242.031 241.695 242.695 240.811 242.473C239.926 242.252 237.715 241.145 237.715 240.038C237.715 238.932 238.268 237.714 237.383 236.607C236.499 235.5 233.624 233.73 232.85 232.844C232.076 231.959 230.86 232.733 230.197 233.619C229.533 234.504 229.091 235.943 228.206 235.279C227.322 234.615 226.658 231.627 225.553 231.295C224.447 230.962 223.231 232.844 222.125 232.955C221.02 233.065 220.135 231.737 218.919 230.852C217.703 229.966 217.039 227.642 215.602 227.199C214.165 226.757 212.948 228.195 211.732 228.085C210.516 227.974 208.636 227.642 207.862 227.974C207.088 228.306 208.415 230.852 207.641 231.073C206.561 231.189 205.469 231.076 204.435 230.741C203.771 230.52 205.651 229.192 204.435 228.417C203.219 227.642 201.228 228.527 199.459 228.306C197.69 228.085 196.364 226.535 194.926 226.203C193.489 225.871 192.162 227.863 191.388 229.413Z" fill="#C2C2C2"/>
<path d="M179.779 240.26C178.784 240.592 176.794 242.252 177.015 242.916C177.236 243.58 179.337 243.58 179.779 243.248C180.221 242.916 180.884 240.592 181.548 240.26C182.211 239.928 179.779 240.26 179.779 240.26Z" fill="#C2C2C2"/>
<path d="M345.184 265.827C344.079 265.495 343.305 267.93 343.526 268.816C343.747 269.701 345.184 271.693 346.511 271.693C347.838 271.693 349.717 270.476 350.381 271.693C351.044 272.911 351.265 274.35 352.26 274.792C353.255 275.235 354.14 277.781 353.919 278.556C353.698 279.33 355.356 280.326 355.577 279.773C355.798 279.22 355.798 275.567 357.125 274.682C358.797 273.584 360.575 272.657 362.432 271.915C363.98 271.251 364.533 268.816 363.538 268.262L358.673 266.27C357.568 265.827 355.798 263.171 354.693 263.171C353.587 263.171 351.708 266.381 350.934 266.713C350.16 267.045 345.184 265.827 345.184 265.827Z" fill="#C2C2C2"/>
<path d="M355.246 242.473C353.808 242.805 353.477 245.13 353.255 245.462C353.034 245.794 355.577 246.79 356.241 246.901C356.904 247.011 358.452 246.126 358.784 245.572C359.495 244.691 360.355 243.941 361.327 243.359C361.769 243.137 359.226 241.699 355.246 242.473Z" fill="#C2C2C2"/>
<path d="M309.693 223.325C308.034 223.215 307.482 225.539 307.592 226.203C307.703 226.867 309.582 227.089 310.467 226.978C311.351 226.867 311.572 223.436 309.693 223.325Z" fill="#C2C2C2"/>
<path d="M360.663 275.124C359.558 275.456 359.337 276.895 359.447 277.67C359.558 278.445 361.437 278.223 361.88 277.67C362.322 277.117 360.663 275.124 360.663 275.124Z" fill="#C2C2C2"/>
<path d="M366.302 277.117C365.528 277.67 366.855 278.666 367.961 279.22C369.066 279.773 369.73 280.216 372.825 279.884C375.921 279.552 377.138 279.662 377.911 278.223C378.685 276.785 378.685 274.239 379.902 273.353C381.118 272.468 382.002 268.816 381.007 268.262C380.012 267.709 377.248 266.713 376.474 266.159C375.7 265.606 375.037 264.056 374.373 264.278C373.71 264.499 372.936 268.262 371.941 268.262C370.946 268.262 369.73 267.266 369.287 268.262C368.845 269.258 369.84 272.911 370.172 273.907C370.504 274.903 370.504 276.563 369.951 276.674C369.398 276.785 367.408 276.342 366.302 277.117Z" fill="#C2C2C2"/>
<path d="M383.771 273.796C382.998 274.35 381.56 276.342 382.224 277.227C382.887 278.113 380.676 281.323 381.45 281.655C383.347 282.277 385.317 282.649 387.31 282.761C388.968 282.872 391.732 283.758 392.948 283.758C394.165 283.758 395.491 281.987 396.597 281.212C397.703 280.437 399.14 279.552 400.467 279.994C402.002 280.27 403.575 280.27 405.111 279.994C405.877 279.891 406.608 279.606 407.242 279.163C407.877 278.721 408.397 278.133 408.759 277.449C409.091 276.453 408.427 274.35 407.543 274.46C406.658 274.571 404.447 276.453 403.231 276.674C402.015 276.895 400.135 276.674 399.472 276.12C398.808 275.567 399.803 273.575 398.477 272.911C397.15 272.247 395.823 270.808 395.049 270.365C394.275 269.922 392.838 271.14 392.174 271.583C391.511 272.025 389.631 270.033 388.857 269.701C388.083 269.369 384.767 273.021 383.771 273.796Z" fill="#C2C2C2"/>
<path d="M399.472 265.495C397.924 265.495 397.26 268.483 398.698 268.926C400.135 269.369 403.12 269.922 404.005 270.697C404.889 271.472 407.322 272.468 408.317 272.136C409.312 271.804 411.081 272.8 411.744 273.464C412.408 274.128 410.196 278.998 411.744 279.22C413.292 279.441 415.614 279.441 416.609 278.223C417.604 277.006 418.489 275.124 419.816 275.124C421.142 275.124 423.575 276.342 424.57 276.01C425.565 275.678 425.897 274.128 425.897 273.353C425.897 272.579 423.354 272.579 422.801 271.583C422.248 270.586 421.916 267.93 420.811 267.598C419.705 267.266 417.383 269.48 416.167 269.59C414.951 269.701 413.956 268.926 412.518 268.262C411.081 267.598 409.644 268.041 408.317 268.262C406.99 268.483 407.101 267.045 406.106 266.381C405.11 265.716 403.452 263.171 402.568 263.614C401.683 264.056 400.798 265.495 399.472 265.495Z" fill="#C2C2C2"/>
<path d="M429.324 271.472C428.44 270.918 426.892 276.563 427.776 276.674C428.661 276.785 432.199 274.018 432.199 273.132C432.199 272.247 429.324 271.472 429.324 271.472Z" fill="#C2C2C2"/>
<path d="M423.575 264.72C422.469 265.384 422.469 267.598 423.575 267.598C424.681 267.598 426.892 266.381 426.671 266.159C426.45 265.938 425.012 263.946 423.575 264.72Z" fill="#C2C2C2"/>
<path d="M424.791 287.742C423.796 288.296 421.474 287.964 421.142 288.849C420.811 289.734 422.248 291.837 422.801 292.169C423.354 292.501 424.128 294.051 424.791 294.715C426.364 295.499 428.143 295.77 429.877 295.49C430.872 295.047 432.862 294.162 433.415 294.826C433.968 295.49 435.405 299.032 437.064 299.696C438.722 300.36 440.934 299.917 441.929 301.024C442.924 302.131 444.251 303.791 446.02 303.68C447.761 303.593 449.496 303.408 451.216 303.127C452.211 302.795 452.211 301.245 453.317 300.692C454.423 300.138 455.307 298.921 454.312 298.036C453.317 297.15 450.442 295.379 450.111 294.604C449.779 293.83 448.894 290.731 447.789 290.841C446.683 290.952 444.029 291.395 443.587 291.063C443.145 290.731 442.813 288.517 441.597 287.742C440.381 286.967 438.501 285.307 437.948 285.307C437.396 285.307 436.179 287.521 435.184 287.631C433.401 287.547 431.626 287.325 429.877 286.967C428.144 286.589 426.333 286.864 424.791 287.742Z" fill="#C2C2C2"/>
<path d="M440.049 278.223C439.292 278.462 438.478 278.438 437.736 278.157C436.994 277.876 436.368 277.354 435.958 276.674C435.626 275.899 433.747 273.021 435.074 272.136C436.4 271.25 439.496 271.25 440.713 269.59C441.929 267.93 442.482 266.713 444.693 266.823C446.904 266.934 452.322 266.27 453.538 267.598C454.754 268.926 458.292 271.693 459.509 271.361C460.725 271.029 463.268 274.682 465.258 274.018C467.248 273.353 468.022 272.136 469.681 272.136C471.89 272.248 474.105 272.248 476.314 272.136C477.199 272.025 478.084 274.35 479.631 274.018C481.179 273.685 482.285 271.25 483.833 270.476C485.381 269.701 486.597 270.697 487.703 269.59C488.808 268.483 491.462 269.812 491.462 270.586C491.462 271.361 490.025 273.132 487.924 274.018C485.823 274.903 484.386 277.449 481.953 277.449C479.521 277.449 476.978 276.674 475.872 276.674C474.767 276.674 472.445 279.552 470.565 279.33C468.685 279.109 462.052 279.662 460.283 279.33C458.513 278.998 458.624 279.662 457.076 279.994C455.528 280.326 454.201 278.666 452.543 278.223C450.884 277.781 440.049 278.223 440.049 278.223Z" fill="#C2C2C2"/>
<path d="M490.356 264.61C488.255 264.942 487.26 266.27 487.26 266.823C487.26 267.377 490.356 268.151 491.462 267.598C492.568 267.045 491.13 264.499 490.356 264.61Z" fill="#C2C2C2"/>
<path d="M496.327 266.823C494.889 267.93 493.673 269.59 493.894 270.476C494.115 271.361 496.327 269.48 497.432 269.59C498.538 269.701 499.865 270.144 500.528 269.59C500.772 269.336 500.952 269.027 501.053 268.69C501.154 268.352 501.172 267.995 501.107 267.648C501.042 267.302 500.896 266.976 500.68 266.698C500.464 266.419 500.184 266.197 499.865 266.048C497.985 265.163 497.101 266.159 496.327 266.823Z" fill="#C2C2C2"/>
<path d="M497.543 271.361C496.327 271.472 497.101 274.46 498.538 275.124C499.975 275.789 503.624 274.571 504.066 274.018C504.509 273.464 508.378 268.705 507.494 268.151C506.609 267.598 504.066 268.926 503.403 269.59C502.74 270.254 500.307 271.14 497.543 271.361Z" fill="#C2C2C2"/>
<path d="M513.575 271.915C514.67 271.072 515.481 269.913 515.897 268.594C516.229 267.709 513.686 266.27 512.801 266.159C511.916 266.049 508.047 272.136 508.71 272.357C510.344 272.582 512.008 272.431 513.575 271.915Z" fill="#C2C2C2"/>
<path d="M522.31 265.495C521.204 266.38 517.445 270.808 518.993 271.25C520.541 271.693 523.415 271.804 524.521 271.25C525.589 270.434 526.785 269.798 528.059 269.369C528.943 269.369 530.934 270.254 531.597 269.369C532.26 268.483 532.26 264.942 531.597 264.388C530.934 263.835 523.968 264.167 522.31 265.495Z" fill="#C2C2C2"/>
<path d="M526.622 279.994C524.079 281.323 519.767 283.425 517.776 283.758C515.786 284.09 512.469 284.2 511.253 285.307C510.037 286.414 511.585 288.406 509.705 288.849C507.604 289.598 505.57 290.524 503.624 291.616C502.408 292.28 502.408 294.826 502.297 296.486C502.271 297.992 501.892 299.47 501.192 300.802C500.418 302.352 500.86 305.783 502.297 305.562C503.735 305.34 505.946 304.123 508.599 303.68C510.271 303.259 511.971 302.963 513.685 302.795C515.034 302.67 516.338 302.248 517.504 301.559C518.67 300.87 519.669 299.931 520.43 298.81C521.646 296.929 527.285 290.398 528.833 289.402C530.708 288.01 532.855 287.029 535.135 286.525C537.457 286.082 541.437 285.307 542.654 283.758C543.87 282.208 547.518 280.216 548.624 279.994C549.73 279.773 551.167 281.101 553.047 279.994C554.926 278.888 557.469 277.781 559.349 276.674C561.539 275.486 563.79 274.414 566.093 273.464C567.531 272.8 568.526 271.361 567.531 270.697C566.536 270.033 563.882 269.812 563.219 269.59C562.555 269.369 562.555 267.93 561.228 268.041C559.902 268.151 555.258 271.361 553.489 271.693C551.72 272.025 550.061 271.361 548.624 271.361C547.187 271.361 544.312 272.468 542.101 272.468C539.889 272.468 536.13 273.685 534.361 273.464C532.592 273.243 528.943 275.899 527.838 276.674C526.732 277.449 527.396 279.662 526.622 279.994Z" fill="#C2C2C2"/>
<path d="M497.543 304.676C496.548 304.344 496.769 308.108 495.884 308.993C494.613 310.129 493.101 310.961 491.462 311.428C490.025 311.76 489.251 314.306 488.808 315.081C488.366 315.855 490.798 315.634 491.904 315.081C493.01 314.527 494.558 312.867 495.884 312.756C497.211 312.646 499.312 310.653 499.865 310.211C500.418 309.768 498.759 305.23 497.543 304.676Z" fill="#C2C2C2"/>
<path d="M552.273 261.953C550.504 262.175 549.619 262.728 547.739 261.953C545.86 261.178 543.096 262.396 541.88 261.953C540.663 261.511 542.101 258.522 543.096 257.526C544.091 256.53 546.744 258.301 548.071 257.526C549.398 256.751 549.951 255.091 552.273 254.538C554.595 253.984 556.916 255.755 558.243 256.308C559.57 256.862 560.455 258.522 559.128 258.411C557.801 258.301 553.931 261.621 552.273 261.953Z" fill="#C2C2C2"/>
<path d="M578.034 264.056C576.487 263.946 575.491 263.946 574.828 264.61C574.165 265.274 575.823 266.602 576.487 266.823C577.15 267.045 580.246 267.266 580.909 268.151C581.573 269.037 583.673 268.483 584.337 268.151C585 267.819 584.226 266.602 582.789 265.716C581.336 264.84 579.717 264.275 578.034 264.056Z" fill="#C2C2C2"/>
<path d="M569.521 257.526C568.194 257.194 569.742 255.091 569.521 254.538C569.3 253.984 571.069 254.427 571.622 254.538C572.174 254.648 572.617 256.973 571.622 257.526C570.946 257.791 570.196 257.791 569.521 257.526Z" fill="#C2C2C2"/>
<path d="M595.614 265.716C594.066 266.048 594.287 268.041 594.287 268.705C594.287 269.369 597.162 268.594 598.157 268.705C599.152 268.816 595.614 265.716 595.614 265.716Z" fill="#C2C2C2"/>
<path d="M608.772 258.411C607.334 258.522 608.219 261.843 607.887 262.396C607.555 262.949 609.214 264.056 610.209 264.056C611.204 264.056 613.858 262.285 613.858 261.289C613.858 260.293 610.541 258.411 608.772 258.411Z" fill="#C2C2C2"/>
<path d="M631.548 255.976C630.553 256.751 629.116 255.202 629.668 254.206C630.221 253.209 638.514 248.45 638.514 249.446C638.514 250.442 632.432 255.312 631.548 255.976Z" fill="#C2C2C2"/>
<path d="M643.157 246.126C642.383 246.015 641.83 248.893 641.499 250C640.731 251.67 639.551 253.117 638.071 254.206C637.187 254.538 635.749 256.087 635.749 256.862C635.749 257.637 635.418 259.629 634.975 259.85C634.658 260.189 634.416 260.591 634.264 261.029C634.111 261.468 634.052 261.933 634.091 262.396C634.201 263.06 637.74 264.942 638.513 264.499C639.287 264.056 640.504 260.293 640.835 259.408C641.167 258.522 642.715 256.419 644.042 256.198C645.369 255.976 644.926 251.66 644.595 251.106C644.263 250.553 645.7 247.897 646.695 248.007C648.006 248.027 649.312 247.841 650.565 247.454C651.007 247.233 644.595 246.236 643.157 246.126Z" fill="#C2C2C2"/>
<path d="M633.317 264.61C632.322 265.052 631.216 268.151 630.553 268.041C629.889 267.93 628.894 270.919 629.558 271.14C630.221 271.361 633.98 269.48 634.644 268.705C635.307 267.93 633.87 264.388 633.317 264.61Z" fill="#C2C2C2"/>
<path d="M642.273 242.584C641.167 242.695 641.388 238.932 642.273 238.599C643.157 238.267 645.147 239.706 644.926 240.592C644.689 241.121 644.32 241.582 643.856 241.931C643.392 242.279 642.847 242.504 642.273 242.584Z" fill="#C2C2C2"/>
<path d="M288.907 74.6798C287.027 75.7866 287.359 77.3362 287.912 78.8857C288.464 80.4353 288.686 82.9809 288.243 83.313C287.801 83.645 284.816 81.9848 283.821 82.3168C282.826 82.6489 282.494 85.1946 282.826 85.8587C283.157 86.5228 285.7 87.0762 285.811 88.0723C285.921 89.0684 282.936 91.5034 282.715 92.0568C282.494 92.6102 280.614 93.385 279.951 94.2705C279.287 95.1559 280.283 97.3696 279.951 97.8123C279.619 98.255 283.931 99.9152 284.263 100.247C284.595 100.579 283.268 102.24 282.494 102.129C281.72 102.018 279.066 98.9191 277.187 97.8123C275.307 96.7055 272.875 97.1482 271.548 96.4841C270.221 95.82 270 93.9384 268.452 94.0491C266.904 94.1598 264.361 95.1559 262.813 94.8239C261.265 94.4918 261.155 94.6025 259.939 93.2743C258.722 91.9462 257.396 92.7209 256.511 91.7248C255.627 90.7287 256.401 88.9577 254.521 88.4043C252.641 87.8509 250.983 89.5112 250.098 91.1714C249.214 92.8316 247.998 96.4841 246.56 97.4802C244.931 98.6026 243.724 100.239 243.133 102.129C242.58 103.789 241.695 105.892 243.133 106.556C244.57 107.22 244.791 109.766 244.349 109.987C243.907 110.209 243.575 112.644 243.796 113.861C244.017 115.079 243.907 117.624 244.128 118.51C244.349 119.395 246.671 121.055 247.555 120.834C248.44 120.613 248.882 124.265 248.882 125.593C248.752 127.251 248.301 128.867 247.555 130.353C246.892 131.46 247.666 133.341 247.998 133.784C248.329 134.227 250.43 132.456 251.425 133.784C252.42 135.112 252.641 136.883 253.526 138.1C254.41 139.318 256.401 140.646 255.737 141.31C255.074 141.974 253.526 141.31 253.194 143.081C253.048 144.555 253.398 146.035 254.189 147.287C254.521 147.84 258.059 146.291 259.165 145.405C260.27 144.52 261.376 142.749 262.039 143.413C262.703 144.077 264.582 147.951 264.251 149.722C263.919 151.493 262.15 153.485 261.376 154.592C260.602 155.699 261.487 156.806 263.034 157.691C263.842 158.196 264.509 158.897 264.973 159.729C265.437 160.561 265.683 161.497 265.688 162.45C265.467 164 265.577 165.771 265.246 167.763C264.914 169.755 265.909 169.977 266.904 171.194C267.899 172.412 266.462 175.4 267.125 176.286C267.789 177.171 269.668 177.171 270.995 176.286C272.322 175.4 274.091 173.851 274.754 173.961C275.418 174.072 274.423 177.282 275.639 177.614C276.855 177.946 278.182 177.171 279.73 177.614C281.278 178.056 284.373 177.282 284.705 176.618C285.037 175.954 286.695 173.851 287.58 173.961C288.464 174.072 289.238 176.618 289.902 176.507C290.565 176.396 292.666 171.858 293.55 171.748C294.435 171.637 293.882 175.4 294.767 176.286C295.651 177.171 296.978 179.606 296.646 180.159C296.315 180.713 294.767 185.029 295.762 185.14C296.757 185.251 299.963 182.594 301.401 182.594C302.838 182.594 305.934 183.923 307.592 183.923C309.481 183.779 311.287 183.087 312.789 181.93C313.86 181.211 315.01 180.617 316.216 180.159C316.659 179.827 314.337 177.835 315.221 177.171C315.853 176.841 316.554 176.669 317.267 176.669C317.979 176.669 318.681 176.841 319.312 177.171C320.307 177.835 320.749 181.045 321.966 181.045C323.182 181.045 326.057 179.938 326.72 180.159C327.383 180.381 327.052 185.029 327.936 185.14C328.821 185.251 330.7 183.591 331.695 182.926L335.786 180.159C336.45 179.717 334.57 183.48 335.786 183.591C337.002 183.701 338.993 183.148 339.545 183.923C340.098 184.697 341.204 187.022 342.31 187.022C343.415 187.022 343.747 189.567 343.747 191.781C343.747 193.995 342.42 196.651 343.747 196.983C345.074 197.315 348.059 195.101 350.491 194.88C352.924 194.659 354.14 192.113 355.577 191.449C357.398 190.804 359.292 190.395 361.216 190.231C361.658 190.231 365.749 186.579 367.297 184.808C368.787 183.375 370.156 181.82 371.388 180.159C372.383 178.721 370.393 176.175 370.393 175.289C370.393 174.404 371.941 175.289 373.047 175.068C374.152 174.847 374.484 172.522 374.484 171.526C374.484 170.53 375.147 167.431 375.258 166.546C375.369 165.66 376.806 167.431 377.69 166.546C378.205 165.939 378.589 165.233 378.817 164.471C379.046 163.709 379.114 162.908 379.017 162.118C378.686 160.901 377.912 161.122 376.474 160.79C375.037 160.458 373.821 159.241 373.931 158.687C374.042 158.134 376.143 158.687 376.143 157.58C375.937 156.092 375.528 154.64 374.926 153.264C374.712 152.559 374.776 151.799 375.106 151.14C375.435 150.481 376.004 149.973 376.695 149.722C378.172 149.095 379.493 148.15 380.565 146.955C381.55 145.949 382.105 144.6 382.113 143.192C382.113 141.974 382.334 140.093 383.329 141.974C384.324 143.856 384.656 146.291 385.651 146.069C386.646 145.848 386.204 143.192 387.199 141.532C388.194 139.871 389.3 139.761 390.627 138.654C391.953 137.547 392.396 136.551 393.501 136.772C394.607 136.994 396.929 137.215 396.929 136.551C396.929 135.887 396.044 133.673 395.713 132.124C395.381 130.574 396.818 128.582 395.713 127.696C395.008 126.925 394.546 125.962 394.386 124.929C394.054 124.155 394.607 119.506 395.381 117.624C396.155 115.743 398.477 112.533 399.14 110.983C399.803 109.434 400.025 107.22 401.02 107.11C402.015 106.999 404.226 107.884 406.106 108.216C407.848 108.495 409.632 108.343 411.302 107.774C412.297 107.22 412.74 108.88 413.956 108.77C415.172 108.659 417.383 108.88 418.378 108.77C419.435 108.369 420.382 107.724 421.143 106.888C421.806 106.335 421.474 105.228 419.926 103.789C418.378 102.35 416.388 102.572 414.84 101.575C413.292 100.579 413.624 99.0298 412.408 98.255C411.063 97.534 409.77 96.7204 408.538 95.82C407.543 95.0452 408.538 93.9384 407.322 93.6064C405.415 92.8179 403.568 91.8932 401.794 90.8393C400.764 90.0317 399.836 89.1026 399.03 88.0723C398.587 87.5189 400.688 86.08 401.351 85.9693C402.465 85.7454 403.475 85.1622 404.226 84.3091C404.864 83.4488 405.177 82.3902 405.111 81.3207C404.889 80.5459 403.342 79.7712 402.125 79.4391C400.909 79.1071 401.794 76.2294 400.909 75.4546C400.025 74.6798 398.587 74.9012 397.924 74.6798C397.26 74.4585 395.602 75.0119 395.27 74.6798C394.939 74.3478 397.371 73.4623 397.592 73.0196C397.813 72.5769 397.039 71.47 396.597 70.4739C396.365 70.0458 396.033 69.6809 395.628 69.4108C395.223 69.1408 394.759 68.9738 394.275 68.9244L391.29 67.9282C390.627 67.5962 392.396 67.2642 392.727 66.4894C393.059 65.7146 395.823 64.4971 395.27 63.9437C394.717 63.3903 392.064 63.3903 391.179 62.3941C390.323 61.5176 389.614 60.5085 389.079 59.4057C388.747 58.5203 389.853 58.631 391.069 58.8523C392.285 59.0737 393.17 61.2873 393.833 60.6232C394.496 59.9592 395.602 60.6232 396.708 60.5126C397.813 60.4019 398.034 59.1844 398.587 58.7417C399.14 58.2989 399.914 59.8485 400.577 59.1844C400.935 58.7564 401.148 58.2268 401.188 57.6706C401.227 57.1144 401.091 56.5597 400.799 56.0853C400.135 55.1998 398.366 53.6503 398.587 53.3183C398.808 52.9862 400.799 53.9823 401.241 53.3183C401.683 52.6542 400.799 50.9939 400.467 50.5512C400.135 50.1085 398.366 48.891 397.592 48.2269C396.818 47.5628 397.15 46.0133 398.034 46.2346C398.919 46.456 401.351 49.3337 402.346 49.6658C403.342 49.9978 405.553 50.4405 406.327 49.6658C407.098 48.918 408.051 48.384 409.091 48.1162C410.307 47.7842 412.187 48.5589 413.182 47.8949C414.177 47.2308 416.499 46.2346 416.609 45.3492C416.72 44.4637 414.84 44.021 414.398 43.7996C413.956 43.5783 412.74 45.0171 412.408 44.6851C412.076 44.353 414.066 42.6928 413.403 42.3608C412.74 42.0287 410.086 40.8112 408.87 41.254C407.654 41.6967 407.543 40.3685 406.769 39.9258C406.294 39.6671 405.938 39.2351 405.773 38.7197C405.608 38.2044 405.648 37.6453 405.885 37.1587C406.548 36.384 408.538 34.281 409.975 34.8344C411.413 35.3878 412.076 37.3801 413.514 37.2694C414.951 37.1587 417.715 37.8228 418.821 37.0481C419.926 36.2733 421.253 34.5024 422.027 34.1703C422.801 33.8383 424.459 33.6169 425.344 33.1742C426.229 32.7315 425.233 30.5178 425.344 29.411C425.455 28.3042 424.128 28.0828 422.69 27.8615C421.253 27.6401 419.042 28.4149 418.268 27.8615C417.421 27.2655 416.736 26.4663 416.278 25.5372C415.393 23.9876 414.84 22.6594 413.182 22.5488C411.523 22.4381 408.096 22.5488 407.543 21.8847C406.99 21.2206 406.88 19.2283 406.106 18.4535C405.332 17.6788 404.115 16.3506 403.342 16.3506C402.568 16.3506 400.577 19.5604 399.582 19.671C398.444 19.8642 397.278 19.8266 396.155 19.5603C395.602 19.1176 396.155 16.3506 396.155 15.6865C396.155 15.0224 397.813 13.8049 398.587 13.3622C399.361 12.9195 398.366 10.9272 397.26 10.0417C396.089 8.89958 395.281 7.43629 394.939 5.83583C394.717 4.50765 393.944 4.61833 393.391 4.72901C392.838 4.8397 393.059 7.38537 391.953 7.60674C390.848 7.8281 390.958 5.94651 390.295 5.72514C389.631 5.50378 390.737 1.40856 390.184 0.965837C389.631 0.52311 387.199 0.965835 386.867 1.62992C386.536 2.29401 386.204 6.27856 385.43 6.49992C384.656 6.72128 383.772 7.49606 382.998 7.49606C382.224 7.49606 382.666 5.06105 382.666 4.50765C382.666 3.95424 384.877 2.84743 384.214 1.96197C383.55 1.07652 382.334 0.19106 381.007 0.744468C379.681 1.29788 378.907 4.28629 378.686 5.3931C378.464 6.49992 378.133 9.15627 377.027 9.599C375.921 10.0417 373.71 12.5874 372.494 12.9195C371.278 13.2515 370.061 17.3467 369.619 17.9001C369.177 18.4535 367.74 17.6788 366.855 18.3429C365.971 19.0069 366.302 22.106 366.634 23.2128C366.774 23.8569 366.757 24.5252 366.583 25.1611C366.41 25.797 366.086 26.3816 365.639 26.8653C364.754 27.4188 364.091 27.0867 362.985 26.8653C361.643 26.6659 360.271 26.8185 359.005 27.3081C358.231 27.8615 358.231 30.8499 357.457 31.1819C356.683 31.514 357.789 33.0635 358.231 33.1742C358.673 33.2849 360.995 35.1665 360.332 35.6092C359.668 36.0519 358.673 38.2656 357.568 38.1549C356.462 38.0442 356.02 37.2694 354.582 36.8267C353.145 36.384 351.708 34.3917 350.381 34.6131C349.054 34.8344 345.627 38.4869 344.521 39.2617C343.415 40.0365 341.204 41.586 340.209 41.4753C339.214 41.3646 338.993 42.2501 337.445 42.8035C335.897 43.3569 332.801 43.689 332.248 44.3531C331.695 45.0171 332.138 48.1162 332.138 49.5551C332.138 50.9939 330.147 52.6542 329.152 53.2076C327.273 54.1457 325.556 55.3788 324.066 56.8601C323.182 58.0776 320.307 59.8485 319.533 60.5126C318.759 61.1767 318.759 63.833 318.649 64.8292C318.538 65.8253 317.654 67.8176 316.769 67.9282C315.885 68.0389 313.894 69.0351 312.789 69.1457C311.683 69.2564 311.683 70.4739 309.914 71.138C308.145 71.8021 302.064 73.3516 300.958 73.0196C299.853 72.6875 300.184 71.9128 298.636 72.1341C295.333 72.7308 292.08 73.5819 288.907 74.6798Z" fill="#C2C2C2"/>
<path d="M374.263 181.045C373.378 182.041 369.398 186.911 369.177 187.354C368.956 187.796 368.292 193.995 369.177 194.769C370.061 195.544 372.052 194.216 372.715 193.552C373.378 192.888 374.926 190.231 375.7 189.567C376.474 188.903 376.474 185.694 375.7 185.14C374.926 184.587 375.369 179.827 374.263 181.045Z" fill="#C2C2C2"/>
<path d="M226.769 54.6465C226.548 53.6504 230.639 50.994 231.634 50.7726C232.629 50.5513 234.398 53.761 234.73 54.6465C235.061 55.5319 234.951 60.5126 233.735 60.2913C232.518 60.0699 226.769 54.6465 226.769 54.6465Z" fill="#C2C2C2"/>
<path d="M240.921 72.2448C240.369 72.5769 243.243 75.0119 243.907 74.7905C244.57 74.5692 244.459 70.2526 243.907 70.0312C243.354 69.8098 240.921 72.2448 240.921 72.2448Z" fill="#C2C2C2"/>
<path d="M242.359 79.4392C242.027 80.1032 241.806 83.2023 242.58 83.5344C243.354 83.8664 247.887 82.2062 247.998 81.4314C248.108 80.6567 247.002 78.111 246.118 78.0003C245.233 77.8896 242.359 79.4392 242.359 79.4392Z" fill="#C2C2C2"/>
<path d="M447.346 108.438C445.663 108.159 443.944 108.159 442.26 108.438C441.265 108.77 434.41 118.62 434.079 119.506C433.747 120.391 436.511 121.72 436.29 122.605C436.069 123.49 434.521 124.597 434.079 125.261C433.636 125.925 435.074 132.788 434.079 133.452C433.084 134.116 430.983 138.1 430.319 138.322C429.656 138.543 426.56 140.314 426.45 141.532C426.339 142.749 426.45 156.474 426.45 157.58C426.45 158.687 424.238 158.577 423.354 159.241C422.469 159.905 422.359 165.217 421.806 165.882C421.253 166.546 415.725 169.645 415.725 170.53C415.725 171.416 414.509 173.408 415.725 173.519C416.941 173.629 418.71 172.412 419.042 173.519C419.373 174.625 417.936 177.614 417.383 178.389C416.83 179.163 416.388 181.377 417.383 182.484C418.378 183.591 419.042 186.579 419.926 186.69C420.811 186.8 423.685 185.362 424.681 185.029C425.983 184.682 427.316 184.46 428.661 184.365C429.324 184.365 427.113 187.022 427.666 187.907C428.672 189.545 429.9 191.034 431.314 192.334C432.42 193.331 430.651 199.639 431.314 200.857C431.978 202.074 429.656 205.616 429.435 207.387C429.214 209.158 425.897 215.135 426.45 216.242C427.002 217.348 428.771 220.448 430.319 221.112C431.867 221.776 433.747 224.764 434.742 224.211C435.737 223.657 436.843 220.78 438.059 220.448C439.754 220.007 441.511 219.857 443.256 220.005C444.803 220.116 446.683 222.661 447.346 222.218C448.01 221.776 445.467 216.02 445.135 214.803C444.803 213.585 444.361 209.047 445.135 207.83C445.909 206.612 448.452 203.956 447.457 202.185C446.462 200.414 445.356 197.647 444.693 196.098C444.029 194.548 444.693 191.67 444.693 190.674C444.693 189.678 446.13 189.125 446.351 187.907C446.63 185.554 446.63 183.177 446.351 180.824C446.02 178.831 442.482 177.282 442.482 176.175C442.482 175.068 445.135 174.404 446.02 173.519C446.904 172.633 447.678 170.309 448.784 169.645C449.889 168.981 453.87 169.866 455.086 169.866C456.302 169.866 454.312 173.076 455.086 173.519C456.011 174.245 456.863 175.061 457.629 175.954C457.961 176.507 458.292 179.938 457.629 180.824C456.966 181.709 453.649 182.484 453.649 183.591C453.649 184.697 458.624 189.125 460.283 190.121C461.941 191.117 463.047 189.235 464.042 190.121C465.037 191.006 467.469 195.212 467.801 196.208C468.133 197.204 465.258 201.078 465.59 202.074C465.921 203.071 468.022 206.834 469.349 207.498C471.341 208.166 473.462 208.356 475.541 208.051C476.536 207.719 473.993 202.517 475.541 202.074C477.088 201.632 481.622 200.636 483.28 200.193C484.939 199.75 487.039 202.074 488.145 201.41C489.251 200.746 490.799 195.434 490.356 194.216C489.914 192.999 487.371 193.331 485.491 192.888C483.612 192.445 483.17 189.899 482.617 188.903C482.064 187.907 479.742 186.911 479.079 186.358C478.415 185.804 479.41 182.927 479.963 181.598C480.516 180.27 481.29 176.618 480.405 175.289C479.521 173.961 479.963 174.072 477.862 172.522C475.762 170.973 475.319 167.763 474.324 166.214C473.329 164.664 470.897 163.004 469.349 161.786C467.801 160.569 463.268 156.695 463.047 156.142C462.826 155.588 468.022 157.359 468.464 156.806C468.907 156.252 471.56 152.71 472.776 152.046C473.993 151.382 477.31 152.046 478.747 151.272C480.184 150.497 487.924 140.978 488.919 140.093C489.914 139.207 489.14 137.547 488.145 136.662C487.15 135.776 482.838 136.772 481.4 136.662H477.862C477.199 136.772 477.199 140.093 475.319 140.535C473.44 140.978 470.897 140.646 470.233 139.982C469.57 139.318 466.916 137.768 465.811 138.1C464.705 138.432 459.84 144.963 459.287 144.963C458.735 144.963 460.172 147.619 459.509 147.951C457.293 148.423 455.027 148.609 452.764 148.505C451.769 148.283 450.663 146.402 449.889 146.291C449.115 146.18 450.663 142.196 450.221 141.642C449.779 141.089 445.798 139.65 444.14 139.097C442.482 138.543 441.597 135.997 441.597 134.227C441.597 132.456 439.717 128.582 440.27 127.143C440.823 125.704 443.477 120.17 445.025 118.51C446.572 116.85 448.894 114.415 450.663 114.857C452.432 115.3 454.312 118.178 456.523 117.514C458.735 116.85 461.72 116.075 463.268 115.632C464.816 115.189 465.921 113.529 467.138 114.193C468.354 114.857 470.233 117.071 471.781 116.739C473.329 116.407 475.541 114.857 476.646 114.747C481.593 114.716 486.538 114.937 491.462 115.411C493.894 115.743 495.884 118.51 498.538 118.62C501.64 118.655 504.741 118.507 507.826 118.178C509.705 117.956 510.811 116.407 513.133 116.075C515.455 115.743 517.555 115.632 520.762 111.537C523.968 107.442 527.285 104.453 528.169 103.125C529.054 101.797 528.28 99.2512 528.943 98.8085C529.607 98.3657 531.155 98.6978 531.708 97.8123C532.26 96.9269 532.592 94.0491 531.708 93.385C530.823 92.721 526.953 92.3889 526.069 92.0569C525.184 91.7248 523.857 97.1482 523.194 97.7016C522.531 98.255 519.767 98.3657 518.771 98.8085C517.776 99.2512 520.762 101.465 520.651 102.129C520.541 102.793 517.555 101.576 516.892 101.908C516.228 102.24 512.58 106.667 511.474 107.442C510.369 108.216 507.383 109.102 506.72 108.77L501.744 106.888C500.418 106.335 494.889 106.224 493.341 106.003C491.794 105.781 491.13 108.77 490.356 108.548C489.582 108.327 483.17 107.22 482.174 106.888C481.179 106.556 480.627 104.785 479.742 104.675C478.857 104.564 469.017 104.343 467.359 104.121C465.7 103.9 461.72 102.24 460.614 101.575C459.509 100.911 456.744 97.8123 455.197 98.8085C453.484 100.019 451.957 101.473 450.663 103.125C450.221 103.678 450.774 107.11 450.774 107.11C450.774 107.11 448.231 108.548 447.346 108.438Z" fill="#C2C2C2"/>
<path d="M489.251 133.009C488.034 133.341 489.361 135.223 490.467 135.887C491.279 136.377 492.022 136.972 492.678 137.658C493.01 138.211 492.236 139.097 492.678 139.761C493.12 140.425 494.779 139.871 495.663 140.425C496.548 140.978 497.654 142.085 499.865 141.2C502.076 140.314 501.302 134.227 500.749 133.562C500.197 132.898 491.13 132.566 489.251 133.009Z" fill="#C2C2C2"/>
<path d="M490.909 143.081C489.693 143.967 486.597 149.169 487.039 149.722C488.187 150.504 489.524 150.963 490.909 151.05C491.351 150.829 492.899 147.287 493.563 147.066C494.226 146.844 496.88 144.077 496.327 143.745C495.774 143.413 491.572 142.528 490.909 143.081Z" fill="#C2C2C2"/>
<path d="M501.081 143.635C499.975 144.188 497.211 146.402 497.764 147.066C498.317 147.73 500.307 149.722 501.081 149.611C501.855 149.501 504.177 147.619 503.845 146.623C503.513 145.627 501.966 143.192 501.081 143.635Z" fill="#C2C2C2"/>
<path d="M493.231 192.113C492.236 192.445 491.794 196.208 492.678 196.983C493.563 197.758 496.659 196.43 497.101 195.987C497.543 195.544 497.543 192.334 497.101 192.113C495.813 192.002 494.519 192.002 493.231 192.113Z" fill="#C2C2C2"/>
<path d="M492.236 200.082C491.572 200.414 489.14 205.616 488.587 206.17C488.034 206.723 489.251 209.601 489.472 210.708C489.693 211.814 489.361 214.36 488.477 215.024C487.592 215.688 484.607 217.349 484.165 217.902C483.722 218.455 484.386 221.222 484.607 221.776C484.828 222.329 487.15 222.883 488.145 222.993C489.14 223.104 490.577 222.551 490.688 221.776C490.799 221.001 489.803 218.345 490.688 218.013C491.573 217.681 494.116 218.345 494.889 217.681C495.663 217.016 495.774 214.36 495.885 213.807C495.995 213.253 492.015 213.585 492.236 212.921C492.457 212.257 491.794 209.379 492.236 208.715C492.678 208.051 496.548 205.174 496.769 204.509C496.99 203.845 492.236 200.082 492.236 200.082Z" fill="#C2C2C2"/>
<path d="M485.381 203.292C486.155 203.292 486.929 209.49 486.486 210.044C486.044 210.597 484.828 210.929 484.054 211.593C483.28 212.257 483.501 216.352 482.396 216.795C481.29 217.238 480.074 215.246 479.631 215.246C479.189 215.246 477.641 216.242 477.088 216.02C476.536 215.799 478.636 212.036 478.857 211.593C479.079 211.15 478.194 207.277 478.636 206.502C479.079 205.727 484.717 203.292 485.381 203.292Z" fill="#C2C2C2"/>
<path d="M501.302 213.475C500.418 214.249 500.418 216.352 500.418 216.795C500.418 217.238 503.403 216.795 503.845 216.795C504.287 216.795 501.855 213.032 501.302 213.475Z" fill="#C2C2C2"/>
<path d="M473.661 211.593C472.776 211.704 471.671 213.253 471.007 213.475C470.581 213.726 470.251 214.114 470.07 214.575C469.89 215.037 469.869 215.546 470.012 216.02C470.455 216.684 473.329 220.005 473.661 219.894C474.001 219.73 474.304 219.499 474.551 219.213C474.798 218.927 474.985 218.594 475.098 218.234C475.209 217.57 474.435 211.482 473.661 211.593Z" fill="#C2C2C2"/>
<path d="M446.241 226.203C446.683 225.318 449.005 225.76 449.668 226.203C450.332 226.646 450.221 231.073 449.668 232.512C449.185 233.429 448.458 234.195 447.568 234.725C447.346 234.947 447.236 237.935 446.683 238.046C446.13 238.157 445.025 228.527 446.241 226.203Z" fill="#C2C2C2"/>
<path d="M532.26 153.043C531.486 151.714 527.727 154.039 526.29 153.928C524.805 153.84 523.328 153.655 521.867 153.375C521.204 153.264 519.214 151.272 517.887 151.05C516.56 150.829 514.681 152.378 514.128 153.043C513.575 153.707 514.238 159.794 515.012 159.794C516.703 159.962 518.407 159.962 520.098 159.794C521.315 159.462 523.084 157.913 524.189 157.691C525.295 157.47 530.381 156.474 531.265 156.031C531.742 155.717 532.1 155.251 532.28 154.709C532.461 154.167 532.454 153.58 532.26 153.043Z" fill="#C2C2C2"/>
<path d="M535.135 154.039C534.693 154.149 534.582 157.47 535.135 157.691C536.559 157.969 538.023 157.969 539.447 157.691C540.553 157.359 541.106 158.245 541.99 158.134C543.294 157.856 544.533 157.33 545.639 156.584C546.523 156.142 550.172 156.695 550.725 156.142C551.278 155.588 550.725 154.149 549.288 154.039C547.85 153.928 541.88 154.26 540.885 154.039C538.982 153.706 537.037 153.706 535.135 154.039Z" fill="#C2C2C2"/>
<path d="M542.875 160.015C541.769 160.458 542.101 163.889 542.211 164.221C543.1 164.95 544.063 165.581 545.086 166.103C545.971 166.656 547.076 165.771 547.297 165.107C547.147 163.156 546.661 161.246 545.86 159.462C545.418 159.019 542.875 160.015 542.875 160.015Z" fill="#C2C2C2"/>
<path d="M574.054 145.959C572.174 146.786 570.509 148.036 569.189 149.611C568.415 150.607 569.3 152.6 570.295 153.153C571.29 153.707 573.391 154.371 574.828 153.707C576.863 153.189 578.932 152.819 581.02 152.6C581.794 152.489 584.005 151.382 583.784 151.05C583.563 150.718 576.044 145.184 574.054 145.959Z" fill="#C2C2C2"/>
<path d="M570.405 142.306C569.41 142.528 568.305 145.073 568.858 145.295C569.41 145.516 572.285 143.634 572.948 143.745C573.612 143.856 574.939 142.97 574.607 142.306C574.275 141.642 571.622 142.085 570.405 142.306Z" fill="#C2C2C2"/>
<path d="M583.01 102.461C583.894 101.908 581.02 100.69 581.904 99.6939C582.789 98.6978 584.447 98.3657 585.885 97.3696C587.322 96.3735 588.649 94.6026 589.976 94.1598C591.302 93.7171 592.408 94.9346 592.85 95.7094C593.292 96.4842 593.845 101.243 594.066 102.461C594.288 103.678 592.076 104.453 590.971 104.453C589.865 104.453 587.432 106.446 586.216 106.888C584.871 107.362 583.605 108.033 582.457 108.88C582.015 109.434 583.231 110.983 583.784 111.316C584.66 111.489 585.561 111.489 586.437 111.316C587.543 111.205 590.197 110.983 590.971 111.98C591.745 112.976 591.413 114.857 592.408 115.743C593.403 116.628 595.172 117.292 595.614 117.624C596.165 118.438 596.437 119.409 596.388 120.391C596.278 121.055 594.066 119.617 592.85 118.842C590.729 117.955 588.549 117.215 586.327 116.628C584.737 116.246 583.184 115.728 581.683 115.079C580.346 114.744 578.934 114.901 577.703 115.521C577.261 115.853 578.587 118.51 578.587 119.285C578.399 120.609 578.065 121.908 577.592 123.158C577.261 124.265 578.698 126.811 579.361 127.032C580.025 127.254 581.241 129.578 582.125 130.906C583.01 132.234 584.668 134.669 585.332 135.665C585.995 136.662 588.649 138.765 587.764 138.986C586.88 139.207 584.005 138.875 583.231 138.986C582.457 139.097 579.693 137.879 579.582 136.662C579.472 135.444 579.361 131.902 578.698 131.128C577.779 129.971 576.655 128.996 575.381 128.25C574.275 127.696 574.054 125.151 574.054 123.933C574.054 122.716 574.496 117.514 574.054 116.628C573.612 115.743 570.627 114.636 570.848 113.751C571.467 111.739 572.32 109.807 573.391 107.995C573.944 107.331 575.27 108.659 576.376 108.106C577.482 107.552 576.818 105.228 578.035 104.453C579.251 103.678 581.573 103.568 583.01 102.461Z" fill="#C2C2C2"/>
<path d="M573.722 104.121C572.617 104.564 572.396 107.552 571.953 108.216C571.511 108.881 568.636 108.548 568.747 106.667C568.858 104.785 568.084 101.244 568.305 100.358C568.526 99.4726 569.742 98.6978 570.737 97.7017C571.732 96.7056 571.732 94.0492 572.174 92.6103C572.317 91.9482 572.641 91.3387 573.109 90.8501C573.578 90.3614 574.173 90.0128 574.828 89.8433C576.597 88.9578 578.808 86.5229 580.025 85.8588C581.241 85.1947 581.683 86.6335 581.572 87.1869C581.462 87.7404 578.477 91.0608 578.034 91.8356C577.592 92.6103 579.361 92.721 579.582 93.6065C579.803 94.4919 579.251 102.461 578.477 102.682C576.85 103.012 575.259 103.494 573.722 104.121Z" fill="#C2C2C2"/>
<path d="M583.784 82.6489C583.01 83.6451 582.346 84.9733 583.12 85.748C583.894 86.5228 585.111 86.4121 585.553 87.2976C585.689 87.5249 585.869 87.7227 586.082 87.8795C586.296 88.0364 586.538 88.149 586.796 88.2108C587.053 88.2727 587.32 88.2825 587.581 88.2397C587.843 88.1969 588.093 88.1024 588.317 87.9617C589.423 87.2976 590.639 84.0878 590.971 83.2023C591.302 82.3169 592.629 79.1071 591.966 78.3324C591.302 77.5576 588.759 77.6683 587.985 78.3324C586.476 79.6611 585.072 81.1042 583.784 82.6489Z" fill="#C2C2C2"/>
<path d="M570.848 130.906C571.401 130.906 569.632 129.135 570.848 128.803C572.064 128.471 572.727 127.918 574.054 128.803C575.381 129.689 575.27 131.792 574.607 132.345C573.944 132.898 573.059 135.998 572.727 136.44C572.399 136.687 572.024 136.864 571.624 136.959C571.225 137.055 570.81 137.066 570.405 136.994C569.631 136.772 568.858 132.898 568.194 132.677C567.531 132.456 567.973 130.242 568.747 130.242C569.521 130.242 570.184 130.906 570.848 130.906Z" fill="#C2C2C2"/>
<path d="M565.43 127.254C564.545 127.807 562.887 129.578 563.108 130.131C563.329 130.685 564.214 132.677 565.43 132.234C566.646 131.792 566.315 126.7 565.43 127.254Z" fill="#C2C2C2"/>
<path d="M576.376 135.112C575.049 134.669 573.944 137.99 574.165 138.543C574.386 139.097 575.381 140.203 576.376 139.65C577.371 139.097 578.477 135.776 576.376 135.112Z" fill="#C2C2C2"/>
<path d="M691.032 229.634C690.6 227.453 691.036 225.189 692.248 223.325C693.575 221.665 693.575 216.574 694.57 216.352C695.565 216.131 697.002 216.02 697.776 217.791C698.55 219.562 697.998 224.543 697.776 225.76C697.555 226.978 699.545 227.974 699.877 229.634C700.209 231.294 699.324 233.729 698.219 234.172C697.113 234.615 691.032 229.634 691.032 229.634Z" fill="#C2C2C2"/>
<path d="M687.604 230.409C687.273 231.184 687.052 243.359 687.604 243.469C688.157 243.58 690.037 243.137 690.811 243.469C691.585 243.801 696.118 237.603 696.118 236.939C696.118 236.275 687.936 229.634 687.604 230.409Z" fill="#C2C2C2"/>
<path d="M666.487 226.646C665.823 226.424 666.487 221.444 666.487 220.448C666.487 219.451 669.582 215.91 670.246 215.135C670.909 214.36 672.899 215.356 673.452 215.135C674.005 214.913 671.241 220.005 670.577 220.78C669.914 221.554 668.477 227.31 666.487 226.646Z" fill="#C2C2C2"/>
<path d="M661.401 226.646C661.179 225.539 660.737 219.783 661.401 219.23C662.064 218.677 663.391 219.23 663.944 219.23C664.496 219.23 664.939 226.092 663.944 226.646C663.544 226.826 663.11 226.919 662.672 226.919C662.234 226.919 661.8 226.826 661.401 226.646Z" fill="#C2C2C2"/>
<path d="M809.889 166.214V234.172C809.406 234.385 808.987 234.722 808.676 235.15C808.365 235.578 808.174 236.081 808.12 236.607C807.899 238.378 806.462 239.817 806.573 240.592C806.683 241.366 809.889 244.355 809.889 244.355V282.872L806.462 279.884C805.139 278.691 803.952 277.355 802.924 275.899C802.298 274.299 801.27 272.888 799.939 271.804C798.391 270.808 795.848 269.59 794.963 268.483C794.079 267.377 791.867 267.487 791.867 266.491C791.867 265.495 794.41 260.736 794.521 260.293C794.632 259.85 793.194 259.518 792.752 260.182C792.31 260.846 790.209 264.056 789.546 264.167C787.96 264.232 786.372 264.195 784.791 264.056C783.464 263.945 782.912 264.831 782.138 265.052C781.137 265.107 780.134 265.032 779.152 264.831C778.71 264.831 778.6 263.503 777.715 263.613C776.831 263.724 774.509 265.827 773.956 265.827C773.403 265.827 772.408 264.72 771.302 264.499C770.197 264.277 769.975 261.842 770.307 260.957C770.639 260.072 774.066 258.301 774.619 257.194C775.172 256.087 775.172 253.541 774.509 252.767C773.845 251.992 770.418 250.664 770.197 249.889C769.92 248.837 769.92 247.731 770.197 246.679C770.307 245.683 774.288 246.458 775.504 246.236C776.72 246.015 776.388 244.576 776.278 244.133C776.167 243.691 769.423 245.351 768.649 244.908C767.969 244.088 767.444 243.15 767.101 242.141C766.88 241.588 769.975 238.157 769.423 237.16C768.87 236.164 765.774 234.947 764.89 233.951C764.005 232.955 762.015 231.626 761.904 230.962C761.794 230.298 762.015 225.982 761.904 225.096C761.794 224.211 758.034 222.551 757.26 221.886C756.487 221.222 757.813 218.677 757.26 217.348C756.819 216.496 756.209 215.743 755.468 215.134C754.727 214.525 753.869 214.074 752.948 213.807C750.848 213.253 747.31 212.368 746.315 211.482C745.319 210.597 742.445 207.608 741.339 207.498C740.233 207.387 736.364 208.383 734.152 207.498C731.941 206.612 723.538 203.403 721.99 202.296C719.72 200.906 717.311 199.756 714.803 198.865C713.366 198.422 710.16 200.303 708.612 200.303C707.064 200.303 703.747 198.311 702.862 197.536C701.978 196.762 698.882 195.434 698.219 194.769C697.555 194.105 699.877 191.006 699.435 190.231C698.993 189.457 696.339 189.789 696.118 190.231C695.897 190.674 695.344 192.556 694.128 191.892C692.485 191.29 690.779 190.881 689.042 190.674C687.936 190.453 687.936 188.461 687.273 188.239C686.609 188.018 684.951 189.014 684.288 188.903C683.624 188.793 683.845 185.472 683.292 184.919C682.74 184.365 681.192 184.808 680.418 183.923C679.644 183.037 680.418 179.938 680.418 179.053C680.418 178.167 682.85 176.396 683.514 175.843C684.177 175.289 683.071 173.519 682.629 173.186C682.187 172.854 678.87 176.396 678.759 177.06C678.649 177.724 679.533 181.709 678.759 182.152C677.985 182.594 676.88 182.484 676.548 182.926C676.216 183.369 678.759 184.919 678.538 185.251C678.317 185.583 677.322 186.8 676.548 186.69C675.774 186.579 675.553 187.132 675.111 187.796C674.668 188.461 676.659 190.674 676.437 191.006C674.826 191.751 673.163 192.38 671.462 192.888C670.246 193.331 668.808 194.991 667.703 194.437C666.597 193.884 666.044 192.002 665.049 191.449C664.054 190.896 662.727 186.468 662.727 185.915C662.727 185.361 666.818 184.808 666.929 184.476C666.701 183.242 666.211 182.072 665.491 181.045C665.13 180.682 664.699 180.396 664.224 180.206C663.748 180.016 663.239 179.924 662.727 179.938C661.511 179.938 661.732 177.503 661.069 176.95C659.978 176.299 658.78 175.849 657.531 175.621C656.646 175.511 651.781 175.068 651.45 173.74C651.118 172.412 651.007 169.755 651.45 169.202C651.892 168.649 656.093 168.759 657.862 168.759C659.631 168.759 661.622 171.194 662.727 171.416C663.833 171.637 664.828 170.53 665.713 170.087C666.597 169.645 667.371 165.217 669.14 164.885C670.909 164.553 674.668 164.221 675.221 164.885C675.774 165.549 674.447 169.202 675.221 169.313C675.995 169.423 677.322 166.103 677.985 166.103C678.649 166.103 680.639 167.542 681.523 167.431C682.408 167.32 682.297 165.107 682.85 164.553C683.403 164 685.283 164.332 685.946 163.779C686.609 163.225 684.066 160.79 683.845 160.347C683.624 159.905 681.192 161.233 680.418 161.454C678.303 161.371 676.215 160.961 674.226 160.237C673.452 159.905 673.01 158.798 672.236 158.687C671.462 158.577 669.804 160.79 668.698 160.79C667.592 160.79 662.727 162.229 661.843 161.676C660.958 161.122 659.853 159.241 659.3 159.351C658.747 159.462 658.084 161.897 657.199 161.786C655.948 161.401 654.81 160.717 653.882 159.794C652.998 159.019 650.455 157.58 649.902 156.695C649.349 155.809 650.123 153.928 649.902 152.932C649.681 151.936 651.339 149.722 651.007 149.39C650.676 149.058 648.796 147.619 648.464 148.504C648.133 149.39 647.138 150.939 646.474 150.607C645.811 150.275 643.71 150.386 643.047 149.943C642.383 149.501 642.715 147.84 641.72 147.73C640.198 147.873 638.707 148.246 637.297 148.837C635.971 149.169 634.754 149.39 634.202 148.504C633.649 147.619 632.322 145.737 631.99 145.848C633 144.717 634.11 143.68 635.307 142.749C636.634 141.864 637.961 139.429 637.518 139.097C637.141 138.654 636.953 138.082 636.995 137.502C637.036 136.922 637.304 136.381 637.74 135.997C638.956 135.112 640.725 134.669 641.83 134.005C642.936 133.341 645.258 135.001 646.474 135.112C647.019 135.194 647.576 135.124 648.083 134.909C648.591 134.694 649.029 134.343 649.349 133.895C650.455 132.677 649.681 130.685 651.118 130.131C652.555 129.578 656.204 128.028 657.973 127.586C659.598 127.421 661.238 127.688 662.727 128.36C663.391 128.692 663.059 130.131 663.833 130.242C664.607 130.353 666.597 129.91 667.26 130.021C667.924 130.131 670.246 132.566 671.683 133.23C673.12 133.895 673.452 135.555 674.116 135.665C675.317 135.937 676.536 136.122 677.764 136.219C678.759 136.219 678.87 133.784 679.644 133.562C681.681 133.463 683.723 133.612 685.725 134.005C687.273 134.337 688.489 137.104 689.042 137.879C689.595 138.654 687.604 139.65 687.273 140.425C686.941 141.199 689.373 141.642 689.926 142.085C690.479 142.528 690.479 143.524 690.479 145.848C690.479 148.172 689.926 149.39 689.152 149.943C688.378 150.497 687.052 151.493 686.831 152.046C686.609 152.6 687.826 154.703 688.157 155.035C688.489 155.367 689.263 154.149 690.147 154.039C691.032 153.928 690.59 156.252 690.811 156.916C691.032 157.58 688.931 160.015 688.821 160.569C688.71 161.122 690.479 163.447 690.811 164.221C691.143 164.996 692.801 171.858 693.243 171.969C693.686 172.08 693.796 169.313 694.238 169.202C694.681 169.091 693.464 165.107 694.128 164.775C694.791 164.443 695.233 162.34 696.118 162.561C697.003 162.782 697.003 166.656 697.555 167.874C698.108 169.091 699.324 170.53 699.103 171.526C698.773 172.978 698.624 174.465 698.661 175.954C698.882 176.175 700.209 175.068 700.983 175.179C701.757 175.289 702.31 176.618 702.752 176.95C703.194 177.282 702.641 179.827 703.305 180.049C704.798 180.689 706.355 181.171 707.948 181.488C709.381 181.572 710.806 181.225 712.039 180.491C712.703 179.938 712.261 178.056 714.03 176.95C715.758 175.992 717.42 174.92 719.005 173.74C719.819 172.669 720.454 171.473 720.885 170.198C722.455 168.965 724.119 167.855 725.86 166.878C726.634 166.435 725.86 162.672 726.634 162.229L729.951 160.237C730.393 160.015 732.494 161.454 733.378 161.233C734.263 161.012 736.917 158.355 737.69 158.244C739.064 158.212 740.433 158.064 741.781 157.802C742.445 157.47 741.781 154.371 742.113 153.485C742.445 152.6 744.877 151.714 745.872 151.272C746.867 150.829 748.747 151.161 749.853 150.829C750.958 150.497 751.732 147.951 752.948 147.73C754.27 147.581 755.601 147.544 756.929 147.619C758.034 147.619 759.14 150.607 760.025 151.272C761.49 152.039 763.126 152.42 764.779 152.378C765.995 152.268 767.211 151.161 768.206 151.714C769.202 152.268 771.634 153.374 773.292 154.371C774.951 155.367 774.951 157.802 776.167 158.355C777.383 158.909 781.253 160.347 782.69 160.347C784.128 160.347 786.56 162.561 787.334 163.004C788.557 163.52 789.911 163.636 791.204 163.336C792.42 163.004 793.747 161.344 795.184 161.344C796.622 161.344 809.889 166.214 809.889 166.214Z" fill="#C2C2C2"/>
<path d="M735.921 152.157C736.143 151.272 732.826 151.161 731.057 151.604C729.288 152.046 725.197 151.936 724.644 151.382C724.091 150.829 721.437 150.054 719.226 149.722C717.061 149.44 714.868 149.44 712.703 149.722C711.597 149.943 711.376 151.604 714.914 152.157C717.42 152.569 719.87 153.275 722.211 154.26C722.875 154.592 723.538 156.806 724.533 157.138C725.528 157.47 729.177 157.912 730.614 157.138C732.052 156.363 735.479 153.375 735.921 152.157Z" fill="#C2C2C2"/>
<path d="M726.634 141.864C726.855 141.31 723.649 139.318 722.654 138.1C721.659 136.883 719.337 134.559 718.342 134.337C717.346 134.116 716.02 135.333 715.577 135.665C715.135 135.997 716.351 138.432 716.462 139.318C716.573 140.203 718.342 141.421 718.342 141.864C718.342 142.306 717.789 145.073 718.673 145.073C720.975 144.874 723.264 144.541 725.528 144.077C726.192 143.856 726.302 142.97 726.634 141.864Z" fill="#C2C2C2"/>
<path d="M698.772 138.986C698.772 138.433 702.531 138.433 703.194 138.986C703.858 139.539 701.315 143.524 700.983 143.413C699.813 142.197 699.042 140.653 698.772 138.986Z" fill="#C2C2C2"/>
<path d="M628.01 136.994C626.683 137.326 625.799 140.093 625.135 140.425C624.472 140.757 626.462 143.302 626.573 143.635C626.683 143.967 629.226 146.512 629.668 145.848C630.998 144.313 632.217 142.686 633.317 140.978C633.649 140.093 629.779 136.662 628.01 136.994Z" fill="#C2C2C2"/>
<path d="M625.025 132.234C624.582 132.345 623.919 131.792 623.698 131.349C623.477 130.906 625.577 129.025 625.025 128.25C624.472 127.475 619.828 128.361 619.607 128.25C619.386 128.139 619.165 127.032 619.607 126.147C620.049 125.261 623.587 123.048 624.472 122.716C625.356 122.384 626.573 124.044 627.015 124.929C627.457 125.815 628.563 127.143 629.115 127.254C629.668 127.364 632.985 130.021 631.88 130.574C629.639 131.296 627.347 131.851 625.025 132.234Z" fill="#C2C2C2"/>
<path d="M629.115 122.273C628.231 122.494 628.12 124.376 629.115 125.261L634.091 128.914C634.975 129.467 639.287 128.36 638.956 127.586C637.994 125.786 636.764 124.144 635.307 122.716C634.644 122.273 630.442 122.052 629.115 122.273Z" fill="#C2C2C2"/>
<path d="M614.631 153.485C613.084 153.817 610.43 155.145 610.872 155.699C611.314 156.252 617.285 158.798 618.28 159.241C619.275 159.683 621.376 157.138 621.929 156.363C622.482 155.588 624.361 153.707 624.472 153.485C624.582 153.264 621.818 150.497 621.044 150.829C620.27 151.161 618.17 153.707 617.617 153.485C616.642 153.199 615.606 153.199 614.631 153.485Z" fill="#C2C2C2"/>
<path d="M609.656 141.974C609.214 142.97 609.324 144.852 610.098 145.073C610.872 145.295 613.857 145.848 614.189 145.073C614.521 144.299 613.526 141.532 612.862 141.532C612.199 141.532 609.877 141.532 609.656 141.974Z" fill="#C2C2C2"/>
<path d="M766.327 250.332C767.764 250.553 771.192 253.984 771.634 254.759C772.076 255.534 769.423 258.633 768.98 258.743C768.538 258.854 769.423 263.945 768.317 264.61C767.211 265.274 763.342 269.922 762.236 269.812C761.13 269.701 758.477 268.926 757.592 268.705C756.708 268.483 754.165 269.59 752.948 269.812C751.732 270.033 749.41 269.701 748.968 268.926C748.526 268.151 749.189 265.716 750.184 264.388C751.179 263.06 752.506 262.617 753.28 261.732C754.054 260.846 753.501 256.53 755.049 255.423C756.597 254.316 763.784 250 766.327 250.332Z" fill="#C2C2C2"/>
<path d="M768.206 267.266C766.99 267.487 767.101 270.033 767.432 270.697C767.764 271.361 770.418 271.14 771.081 270.697C771.744 270.254 774.509 270.254 774.066 269.148C773.624 268.041 771.745 266.491 768.206 267.266Z" fill="#C2C2C2"/>
<path d="M583.12 172.522C582.015 172.08 582.236 175.4 581.572 175.954C580.909 176.507 582.678 177.614 583.784 178.389C584.949 179.341 585.925 180.505 586.658 181.82C587.211 182.816 587.543 184.144 588.649 184.365C589.754 184.587 591.192 183.701 591.966 183.591C592.74 183.48 592.518 181.709 592.961 181.045C593.403 180.381 593.182 178.721 594.066 178.499C595.083 178.341 596.124 178.495 597.052 178.942C597.383 179.274 595.504 181.045 595.614 181.598C595.725 182.152 597.162 182.926 598.047 183.148C598.931 183.369 601.253 182.373 602.69 182.594C604.128 182.816 607.002 183.812 607.776 183.701C608.55 183.591 607.666 180.824 608.329 180.713C609.518 180.83 610.699 181.015 611.867 181.266C613.084 181.377 613.415 182.926 615.516 183.701C617.617 184.476 619.717 184.697 621.155 185.472C622.387 186.152 623.683 186.708 625.025 187.132C626.02 187.575 627.015 190.896 627.568 191.006C628.12 191.117 629.668 191.56 630.221 191.006C630.774 190.453 631.659 182.152 631.106 181.93C630.553 181.709 627.015 182.484 626.572 181.93C626.13 181.377 626.241 178.61 625.688 178.167C624.316 177.046 622.876 176.011 621.376 175.068C620.713 174.625 616.4 175.068 615.295 174.957C614.189 174.847 613.968 172.301 613.194 172.522C612.42 172.744 607.666 170.419 606.339 170.309C605.012 170.198 602.801 173.076 601.916 173.408C600.924 173.769 599.877 173.956 598.821 173.961C598.489 173.961 598.268 171.194 597.715 170.973C597.162 170.752 595.725 171.305 595.061 171.194C594.398 171.084 594.398 172.301 593.624 172.522C592.85 172.744 583.12 172.522 583.12 172.522Z" fill="#C2C2C2"/>
<path d="M577.482 178.389C578.477 179.495 579.914 177.503 580.688 178.389C581.031 178.79 581.219 179.3 581.219 179.827C581.219 180.355 581.031 180.865 580.688 181.266C580.135 181.709 580.467 183.812 579.361 184.033C579.173 184.101 578.972 184.129 578.773 184.115C578.573 184.101 578.378 184.045 578.201 183.951C578.024 183.858 577.869 183.728 577.745 183.57C577.621 183.413 577.531 183.231 577.482 183.037C577.165 182.131 576.796 181.244 576.376 180.381C576.044 180.159 572.727 178.278 573.28 177.835C573.833 177.392 576.376 176.95 577.482 178.389Z" fill="#C2C2C2"/>
<path d="M576.376 173.851C575.823 174.183 577.261 176.396 578.145 176.396C579.03 176.396 580.135 174.293 580.135 173.851C580.135 173.408 577.039 173.297 576.376 173.851Z" fill="#C2C2C2"/>
<path d="M580.135 185.472C579.14 185.915 578.034 186.69 578.145 187.354C578.256 188.018 578.034 189.346 579.14 189.346C580.246 189.346 581.573 188.461 582.236 188.35C583.301 188.187 584.341 187.89 585.332 187.464C585.885 187.132 585.111 185.361 584.447 184.919C583.784 184.476 580.799 185.251 580.135 185.472Z" fill="#C2C2C2"/>
<path d="M570.848 179.938C570.295 180.159 571.401 182.927 572.175 183.037C572.948 183.148 573.059 182.152 573.17 181.488C573.28 180.824 571.843 179.385 570.848 179.938Z" fill="#C2C2C2"/>
<path d="M566.093 184.144C567.199 183.148 567.199 181.045 566.093 180.713C565.029 180.294 564.026 179.736 563.108 179.053C562.334 178.61 560.344 176.507 559.349 176.396C558.354 176.286 553.6 176.728 552.273 176.396C550.946 176.064 551.057 177.725 549.951 178.057C548.845 178.389 547.297 177.171 546.855 177.392C546.413 177.614 545.528 176.175 544.754 176.839C543.98 177.503 544.312 183.369 544.754 183.591C545.197 183.812 547.629 183.591 548.845 184.808C550.418 186.453 552.119 187.97 553.931 189.346C554.705 189.678 556.916 189.014 558.243 189.346C559.57 189.678 559.681 187.797 560.897 187.686C562.169 187.665 563.432 187.479 564.656 187.132C565.762 186.69 566.093 184.144 566.093 184.144Z" fill="#C2C2C2"/>
<path d="M566.093 189.346C564.877 189.789 564.988 190.121 564.656 191.228C564.324 192.334 565.983 192.666 566.978 192.666C567.973 192.666 568.968 191.006 568.747 190.563C568.454 190.142 568.053 189.807 567.586 189.592C567.119 189.378 566.604 189.293 566.093 189.346Z" fill="#C2C2C2"/>
<path d="M54.1769 51.326C54.1769 51.326 51.4128 51.6581 51.0811 52.4329C50.7494 53.2076 52.8502 55.532 51.0811 56.1961C49.3121 56.8601 47.3219 57.967 47.2114 59.2951C47.1008 60.6233 49.091 65.604 49.091 65.604C49.091 65.604 51.4128 69.3672 51.634 69.9206C51.8551 70.474 51.634 73.1303 50.7494 73.7944C49.8649 74.4585 51.4128 77.3362 51.4128 78.2217C51.3672 81.1505 51.5892 84.0773 52.0762 86.9656" stroke="white" stroke-width="0.5" stroke-miterlimit="10"/>
<path d="M70.0984 120.17C71.1624 119.166 72.1596 118.094 73.0836 116.96C74.0787 115.632 73.747 114.083 74.6316 113.197C75.5161 112.312 77.1746 112.865 77.8379 113.197C78.5013 113.529 81.0443 115.964 82.2606 115.411C83.4768 114.857 83.5873 114.304 83.5873 112.754C83.5873 111.205 80.7126 108.77 81.9289 107.884C83.1451 106.999 84.3613 107.552 85.6881 107.884C87.0148 108.216 89.4473 107.442 90.3318 107.442C91.2163 107.442 91.3269 110.098 91.4375 111.205C91.548 112.312 89.8895 116.739 91.4375 116.739C92.9854 116.739 94.865 116.296 96.634 116.628C98.4031 116.96 99.951 119.063 101.167 120.17C102.383 121.277 101.499 123.823 101.167 124.819C100.835 125.815 100.504 128.582 101.831 129.246C103.678 130.621 105.35 132.22 106.806 134.005C108.133 135.555 109.017 137.768 110.012 138.654C111.007 139.539 116.646 141.974 117.531 141.864C118.415 141.753 119.963 138.986 120.958 138.1C121.953 137.215 124.165 137.547 125.16 138.433C126.155 139.318 129.804 142.085 131.13 141.864C132.457 141.642 133.673 137.104 135.442 136.44C137.211 135.776 146.388 136.44 146.388 136.44" stroke="white" stroke-width="0.5" stroke-miterlimit="10"/>
<path d="M92.4325 82.8704L91.4374 88.2938C91.3268 89.5113 93.6487 89.954 93.9804 90.8395C94.3121 91.7249 94.7543 94.6026 93.9804 95.4881C93.2064 96.3735 92.9853 96.1522 91.4374 96.4842C89.8895 96.8162 89.5578 98.9192 89.5578 99.9153C89.5578 100.911 87.0148 98.1444 87.2359 99.9153C87.457 101.686 89.7789 106.446 88.8944 107.663" stroke="white" stroke-width="0.5" stroke-miterlimit="10"/>
<path d="M117.531 141.864C117.531 141.864 119.189 144.188 117.531 145.627C116.13 146.749 114.564 147.645 112.887 148.283C111.781 148.837 111.229 152.046 111.45 152.71C111.634 154.331 111.597 155.97 111.339 157.58C111.228 158.758 111.228 159.944 111.339 161.122C111.45 162.118 113.44 162.782 113.44 164.221C113.44 165.66 113.329 167.431 114.767 168.317C116.204 169.202 118.194 169.645 119.632 170.53C121.069 171.416 122.175 172.412 123.501 171.526C124.828 170.641 127.813 167.652 129.472 167.431C131.13 167.21 133.01 168.317 133.673 167.763C134.337 167.21 133.563 164.664 134.89 164.332C136.216 164 137.101 164.332 138.207 163.668C139.312 163.004 139.312 160.458 140.528 160.458C141.745 160.458 141.855 164.664 142.74 165.55C143.624 166.435 146.278 163.115 146.388 161.344C146.499 159.573 148.6 156.142 150.037 156.031C151.755 155.89 153.418 155.36 154.902 154.481C156.229 153.485 158.55 155.035 159.656 155.477C160.762 155.92 162.641 156.142 163.968 152.71" stroke="white" stroke-width="0.5" stroke-miterlimit="10"/>
<path d="M103.047 166.988L105.479 165.55C106.917 164.664 110.786 164.775 112.113 162.229" stroke="white" stroke-width="0.5" stroke-miterlimit="10"/>
<path d="M123.501 171.526C123.501 171.526 124.717 174.625 125.16 175.511C125.602 176.396 127.813 176.95 128.477 176.95C129.14 176.95 131.13 177.614 131.13 178.278C131.13 178.942 130.688 181.488 131.13 181.82C131.572 182.152 133.894 180.602 135 180.934C136.106 181.266 136.99 184.144 137.543 184.255C138.096 184.365 140.639 184.697 139.865 185.472C138.436 186.773 136.676 187.654 134.779 188.018C133.452 188.129 133.231 189.678 133.673 190.785C134.115 191.892 137.875 193.995 138.98 195.876C140.086 197.758 140.86 198.201 142.629 198.311C144.812 198.35 146.947 198.96 148.821 200.082C150.369 201.3 150.258 202.296 150.59 203.735C150.884 205.017 151.368 206.248 152.027 207.387C152.469 207.83 149.595 211.261 149.595 211.261" stroke="white" stroke-width="0.5" stroke-miterlimit="10"/>
<path d="M188.624 195.434C188.624 195.434 185.86 196.54 185.639 195.434C185.418 194.327 184.754 191.56 183.87 191.449C182.985 191.338 180.885 189.457 180.111 189.235C179.337 189.014 175.688 192.777 175.577 193.331C175.467 193.884 175.356 196.208 174.693 196.651C173.013 197.362 171.21 197.737 169.386 197.758C167.568 197.676 165.748 197.825 163.968 198.201C162.641 198.533 160.541 200.746 161.204 201.853C161.867 202.96 162.862 205.616 162.42 206.502C161.978 207.387 160.541 207.83 159.988 208.162C159.435 208.494 158.55 210.265 157.776 210.486C157.003 210.708 152.027 207.387 152.027 207.387" stroke="white" stroke-width="0.5" stroke-miterlimit="10"/>
<path d="M199.349 246.901C199.567 245.834 199.901 244.795 200.344 243.801C200.9 242.188 200.9 240.434 200.344 238.821C199.791 238.046 200.123 235.943 200.012 235.279C199.902 234.615 202.555 233.729 203.329 233.619C204.103 233.508 206.425 235.39 207.088 235.39C208.045 235.512 209.016 235.318 209.853 234.836C210.627 234.172 211.069 227.974 211.069 227.974" stroke="white" stroke-width="0.5" stroke-miterlimit="10"/>
<path d="M205.209 230.962L204.324 234.061" stroke="white" stroke-width="0.5" stroke-miterlimit="10"/>
<path d="M241.585 242.473C241.585 242.473 242.027 246.679 241.585 246.901C241.142 247.122 239.042 246.347 238.268 246.901C237.494 247.454 236.941 249.668 236.499 250.442C236.056 251.217 236.83 252.545 237.383 252.435C237.936 252.324 241.032 251.992 241.806 252.435C242.58 252.877 241.695 258.522 241.695 258.522" stroke="white" stroke-width="0.5" stroke-miterlimit="10"/>
<path d="M261.376 263.06C262.186 262.237 263.075 261.496 264.03 260.846C265.135 260.404 263.366 258.522 264.03 257.747C264.693 256.973 265.688 255.202 266.683 255.534C267.678 255.866 269.005 257.305 270.442 258.079C271.88 258.854 271.99 260.293 272.985 260.404C273.98 260.514 276.081 260.404 276.966 260.625C277.85 260.846 276.081 263.281 276.966 263.613C277.85 263.946 278.845 265.716 277.85 268.262" stroke="white" stroke-width="0.5" stroke-miterlimit="10"/>
<path d="M280.061 268.262C280.061 268.262 279.951 265.606 280.946 264.942C281.941 264.278 284.926 263.06 285.7 262.507C286.474 261.953 286.695 260.182 286.364 259.408C286.032 258.633 286.585 256.862 285.369 256.751C284.855 256.637 284.384 256.379 284.012 256.006C283.64 255.634 283.382 255.163 283.268 254.648C283.157 253.873 282.604 250.332 283.268 249.668C283.596 249.356 284.032 249.183 284.484 249.183C284.936 249.183 285.372 249.356 285.7 249.668C286.474 250.332 286.695 251.771 288.022 251.549C288.604 251.366 289.136 251.05 289.577 250.628C290.018 250.206 290.356 249.688 290.565 249.114C290.565 248.782 290.123 243.359 290.565 242.473C291.376 241.607 292.307 240.861 293.329 240.26" stroke="white" stroke-width="0.5" stroke-miterlimit="10"/>
<path d="M510.59 288.296L512.248 289.734C513.354 290.62 513.686 292.612 514.681 292.059C515.676 291.505 516.56 289.181 517.224 288.296C517.655 287.631 517.929 286.877 518.025 286.091C518.12 285.304 518.036 284.506 517.776 283.758" stroke="white" stroke-width="0.5" stroke-miterlimit="10"/>
<path d="M526.622 279.994C526.622 279.994 525.405 282.208 526.622 282.54C527.838 282.872 529.165 280.437 529.717 281.323C530.27 282.208 531.376 284.532 529.717 285.307C528.059 286.082 528.17 288.185 528.833 289.402" stroke="white" stroke-width="0.5" stroke-miterlimit="10"/>
<path d="M256.511 91.7249C256.511 91.7249 256.843 97.1484 257.285 98.0338C257.727 98.9193 260.27 100.358 261.597 101.133C262.924 101.908 265.688 103.679 266.13 104.453C266.933 105.542 268.053 106.354 269.337 106.778C270 106.778 270.332 109.655 271.658 109.655C273.661 109.562 275.655 109.34 277.629 108.991C278.513 108.77 279.398 106.335 280.061 106.003C280.725 105.671 284.926 106.446 287.138 106.224C289.349 106.003 292.113 108.327 293.219 107.774C294.324 107.22 297.088 104.896 298.083 104.453C299.079 104.011 300.848 103.789 301.511 103.236C302.174 102.682 302.727 98.6979 303.943 97.9231C305.995 97.1114 308.101 96.4457 310.246 95.9308C311.904 95.4881 315.774 95.3774 316.437 95.8202C317.101 96.2629 319.423 99.4727 320.307 100.026C321.801 100.987 323.511 101.558 325.282 101.686C326.941 101.576 328.821 101.797 329.705 101.576C330.59 101.354 333.133 97.8124 333.575 97.7018L339.877 97.1483C341.204 97.0377 343.636 98.2552 344.41 97.9231C345.184 97.5911 345.516 93.7172 345.848 92.9424C346.179 92.1677 349.054 90.1754 349.386 89.4006C349.717 88.6259 347.396 85.9695 347.506 85.6374C348.485 84.7251 349.605 83.9775 350.823 83.4238C351.376 83.3131 354.472 82.4277 354.914 81.4316C355.356 80.4354 354.251 79.2179 353.919 78.5538C353.587 77.8897 352.15 76.3402 352.703 75.4547C353.255 74.5693 355.135 71.9129 355.025 71.2488C354.914 70.5847 357.457 71.5809 358.231 71.2488C359.005 70.9168 360.221 67.8177 360.663 66.8216C361.106 65.8254 362.764 63.9438 363.096 63.2798C363.427 62.6157 361.327 60.2914 361.216 59.2952C361.171 57.5693 361.55 55.8587 362.322 54.3146C363.096 53.2077 363.538 49.6659 363.759 49.0018C363.98 48.3377 365.97 47.4523 367.076 47.0096C368.182 46.5668 368.624 49.3339 369.73 49.1125C370.835 48.8911 371.388 47.1202 372.162 47.0096C372.936 46.8989 373.931 47.563 375.479 47.0096C377.027 46.4561 378.133 48.3377 378.907 48.3377C379.681 48.3377 381.339 46.4561 382.666 46.3455C385.675 46.5507 388.667 46.9575 391.622 47.563C392.285 47.7843 392.727 49.8873 393.391 50.33C394.054 50.7727 396.265 52.5436 396.486 53.3184L398.587 58.7418" stroke="white" stroke-width="0.5" stroke-miterlimit="10"/>
<path d="M356.241 37.6016C356.241 37.6016 354.803 40.922 355.025 41.6968C355.284 42.7815 355.693 43.8247 356.241 44.7959C356.794 45.46 356.572 48.7804 356.241 49.0018C355.24 49.5689 354.159 49.9794 353.034 50.2193C352.371 50.1086 352.26 48.0056 351.818 47.5629C351.376 47.1202 351.929 44.0211 351.818 43.357C351.183 42.2291 350.316 41.2484 349.275 40.4793C348.833 40.1472 347.838 42.9143 348.059 43.9104C348.28 44.9065 348.943 51.4368 348.059 52.3222C346.843 53.3927 345.41 54.1858 343.857 54.6465C342.641 55.0893 339.545 50.7727 338.55 49.7765C337.555 48.7804 337.445 42.8036 337.445 42.8036" stroke="white" stroke-width="0.5" stroke-miterlimit="10"/>
<path d="M336.45 97.4803C336.45 97.4803 336.781 102.018 336.45 102.572C336.118 103.125 333.907 103.346 333.354 103.679C332.249 104.393 331.213 105.208 330.258 106.114C329.816 106.667 330.921 108.438 331.474 108.77C332.027 109.102 331.474 111.758 331.142 112.644C330.811 113.529 328.378 114.193 327.604 114.525C326.83 114.857 324.398 118.621 324.066 119.395C323.735 120.17 324.287 123.048 324.066 123.823C323.845 124.597 324.066 126.368 323.513 126.811C322.961 127.254 320.086 127.586 319.312 127.918C318.538 128.25 320.418 132.234 320.086 132.456C319.754 132.677 316.437 131.902 315.553 132.456C314.668 133.009 311.683 135.112 310.246 135.444C308.808 135.776 306.044 136.994 305.27 136.772C304.496 136.551 300.074 136.219 299.521 135.998C298.968 135.776 296.757 138.654 295.762 138.986C294.135 139.546 292.577 140.289 291.118 141.2C290.786 141.642 291.671 144.299 291.118 144.409C290.565 144.52 288.022 145.073 287.248 145.405C286.474 145.738 285.147 149.169 284.152 149.39C283.157 149.611 280.614 148.726 279.951 149.39C279.287 150.054 280.393 151.936 280.504 153.043C280.614 154.149 279.287 155.367 279.177 156.142C279.066 156.916 278.735 159.905 279.177 160.901C279.619 161.897 281.167 162.672 282.052 163.115C282.936 163.557 281.83 165.771 281.941 166.988C282.282 168.112 282.889 169.138 283.71 169.977C283.71 169.977 283.378 171.748 282.825 171.748C282.273 171.748 280.504 170.862 280.282 171.748C280.061 172.633 275.307 177.393 275.307 177.393" stroke="white" stroke-width="0.5" stroke-miterlimit="10"/>
<path d="M379.128 162.783C379.128 162.783 376.916 164.332 375.7 163.557C374.484 162.783 373.821 162.008 372.825 161.786C371.83 161.565 369.066 161.233 368.292 160.458C367.518 159.683 367.85 156.806 368.292 155.478C368.735 154.149 370.172 151.714 369.951 150.718C369.73 149.722 368.513 148.505 367.85 147.619C367.187 146.734 366.634 143.524 365.528 142.528C364.423 141.532 361.216 140.646 360 139.65C358.784 138.654 357.678 137.99 357.678 136.772C357.678 135.555 358.341 133.12 357.678 132.345C357.015 131.57 355.246 130.464 354.914 129.357C354.582 128.25 357.346 124.376 357.236 123.491C357.125 122.605 355.246 121.498 354.914 121.166C354.582 120.834 352.813 124.708 351.818 124.819C350.823 124.929 351.818 122.826 351.818 121.166C351.818 119.506 353.255 115.964 353.034 114.525C352.813 113.086 352.703 110.098 350.823 109.655C348.943 109.213 347.396 110.873 346.4 111.426C345.405 111.98 343.083 113.529 342.199 112.976C340.543 112.151 338.845 111.412 337.113 110.762C336.007 110.43 331.142 112.644 331.142 112.644" stroke="white" stroke-width="0.5" stroke-miterlimit="10"/>
<path d="M338.882 183.591C338.882 183.591 337.887 180.381 338.329 179.606C338.771 178.831 340.54 178.942 341.093 178.167C341.646 177.392 339.767 174.515 341.093 173.519C342.42 172.523 344.3 170.198 345.184 169.645C346.069 169.091 346.953 169.977 347.617 168.981L350.16 165.439C350.712 164.553 349.386 162.34 350.16 161.676C350.934 161.012 354.914 161.676 355.798 160.79C356.683 159.905 357.678 156.916 358.341 155.588C359.005 154.26 358.894 151.272 359.558 150.165C360.221 149.058 361.548 149.279 362.654 148.726C364.106 147.572 365.473 146.314 366.744 144.963" stroke="white" stroke-width="0.5" stroke-miterlimit="10"/>
<path d="M457.629 175.954C457.982 175.137 458.241 174.283 458.403 173.408C458.429 173.035 458.589 172.684 458.853 172.419C459.117 172.155 459.468 171.995 459.84 171.969C460.835 171.969 463.047 172.522 463.71 172.522C464.373 172.522 464.042 175.289 464.816 175.289C465.59 175.289 468.243 174.072 469.902 173.961C471.56 173.851 472.224 174.847 473.661 175.289C475.098 175.732 474.545 177.392 475.098 177.392L480.737 177.835" stroke="white" stroke-width="0.5" stroke-miterlimit="10"/>
<path d="M431.646 136.772C431.646 136.772 432.531 142.306 432.641 143.634C432.752 144.963 430.983 145.737 430.872 146.623C430.762 147.508 432.531 148.283 433.194 148.947C434.136 149.715 434.923 150.653 435.516 151.714C436.069 152.71 435.405 156.142 435.516 156.695C435.627 157.248 437.064 156.474 437.727 156.695C438.391 156.916 438.722 155.035 439.496 154.813C440.27 154.592 441.818 155.92 443.034 156.031C444.251 156.142 444.803 153.485 445.799 153.707C446.794 153.928 447.789 154.924 449.115 156.916C450.442 158.909 450.885 161.454 452.211 162.118C453.538 162.782 457.297 164.885 458.292 164.885C459.288 164.885 460.172 163.225 461.388 163.336L466.032 163.889C466.585 164 466.253 166.103 467.248 166.656L471.007 168.649C471.339 168.87 471.118 171.858 470.455 171.969C469.791 172.08 467.69 174.404 467.69 174.404" stroke="white" stroke-width="0.5" stroke-miterlimit="10"/>
<path d="M460.504 116.407C460.504 116.407 459.288 114.857 459.509 114.193C459.73 113.529 461.388 113.086 461.388 112.312C461.388 111.537 457.961 109.434 458.403 108.438C459.064 107.235 460.118 106.297 461.388 105.781C462.604 105.228 465.369 107.552 467.027 107.11C468.686 106.667 474.103 107.11 474.988 106.667L479.742 104.675" stroke="white" stroke-width="0.5" stroke-miterlimit="10"/>
<path d="M494.116 106.113C494.116 106.113 494.226 109.102 494.116 109.655C494.005 110.209 495.442 110.209 496.437 110.541C497.432 110.873 498.649 110.209 498.98 110.541C499.312 110.873 498.538 113.64 498.98 114.082C499.687 115.547 500.279 117.064 500.749 118.62" stroke="white" stroke-width="0.5" stroke-miterlimit="10"/>
<path d="M199.349 209.269C199.349 211.103 197.864 212.589 196.032 212.589C194.2 212.589 192.715 211.103 192.715 209.269C192.715 207.435 194.2 205.948 196.032 205.948C197.864 205.948 199.349 207.435 199.349 209.269Z" fill="#FB7156"/>
<path d="M196.032 232.512L198.243 214.803H193.821L196.032 232.512Z" fill="#FB7156"/>
<path d="M199.349 223.667C199.349 225.501 197.864 226.987 196.032 226.987C194.2 226.987 192.715 225.501 192.715 223.667C192.715 221.833 194.2 220.346 196.032 220.346C197.864 220.346 199.349 221.833 199.349 223.667Z" fill="#FB7156"/>
<path d="M196.032 246.91L198.243 229.201H193.821L196.032 246.91Z" fill="#FB7156"/>
<path d="M208.526 223.667C208.526 225.501 207.041 226.987 205.209 226.987C203.377 226.987 201.892 225.501 201.892 223.667C201.892 221.833 203.377 220.346 205.209 220.346C207.041 220.346 208.526 221.833 208.526 223.667Z" fill="#FB7156"/>
<path d="M205.209 246.91L207.42 229.201H202.998L205.209 246.91Z" fill="#FB7156"/>
<path d="M256.511 227.476C256.511 229.31 255.026 230.796 253.194 230.796C251.362 230.796 249.877 229.31 249.877 227.476C249.877 225.642 251.362 224.156 253.194 224.156C255.026 224.156 256.511 225.642 256.511 227.476Z" fill="#FB7156"/>
<path d="M253.194 250.719L255.406 233.01H250.983L253.194 250.719Z" fill="#FB7156"/>
<path d="M296.646 223.217C296.646 225.051 295.161 226.538 293.329 226.538C291.497 226.538 290.012 225.051 290.012 223.217C290.012 221.383 291.497 219.897 293.329 219.897C295.161 219.897 296.646 221.383 296.646 223.217Z" fill="#FB7156"/>
<path d="M293.329 246.46L295.541 228.751H291.118L293.329 246.46Z" fill="#FB7156"/>
<path d="M334.459 247.899C334.459 249.732 332.974 251.219 331.143 251.219C329.311 251.219 327.826 249.732 327.826 247.899C327.826 246.065 329.311 244.578 331.143 244.578C332.974 244.578 334.459 246.065 334.459 247.899Z" fill="#FB7156"/>
<path d="M331.143 271.142L333.354 253.433H328.931L331.143 271.142Z" fill="#FB7156"/>
<path d="M377.071 256.236C377.071 258.07 375.586 259.556 373.754 259.556C371.922 259.556 370.437 258.07 370.437 256.236C370.437 254.402 371.922 252.915 373.754 252.915C375.586 252.915 377.071 254.402 377.071 256.236Z" fill="#FB7156"/>
<path d="M373.754 279.479L375.965 261.77H371.543L373.754 279.479Z" fill="#FB7156"/>
<path d="M169.572 203.403C169.572 205.236 168.086 206.723 166.255 206.723C164.423 206.723 162.938 205.236 162.938 203.403C162.938 201.569 164.423 200.082 166.255 200.082C168.086 200.082 169.572 201.569 169.572 203.403Z" fill="#FB7156"/>
<path d="M166.255 226.646L168.466 208.937H164.043L166.255 226.646Z" fill="#FB7156"/>
<path d="M191.387 194.548C191.387 196.382 189.902 197.868 188.07 197.868C186.238 197.868 184.753 196.382 184.753 194.548C184.753 192.714 186.238 191.228 188.07 191.228C189.902 191.228 191.387 192.714 191.387 194.548Z" fill="#FB7156"/>
<path d="M188.07 217.791L190.281 200.082H185.859L188.07 217.791Z" fill="#FB7156"/>
<path d="M200.455 149.919C200.455 151.753 198.97 153.239 197.138 153.239C195.306 153.239 193.821 151.753 193.821 149.919C193.821 148.085 195.306 146.599 197.138 146.599C198.97 146.599 200.455 148.085 200.455 149.919Z" fill="#FB7156"/>
<path d="M197.138 173.162L199.349 155.453H194.927L197.138 173.162Z" fill="#FB7156"/>
<path d="M189.175 138.015C189.175 139.849 187.69 141.336 185.858 141.336C184.027 141.336 182.542 139.849 182.542 138.015C182.542 136.181 184.027 134.695 185.858 134.695C187.69 134.695 189.175 136.181 189.175 138.015Z" fill="#FB7156"/>
<path d="M185.859 161.258L188.07 143.549H183.647L185.859 161.258Z" fill="#FB7156"/>
<path d="M229.858 154.093C229.858 155.927 228.373 157.414 226.541 157.414C224.709 157.414 223.224 155.927 223.224 154.093C223.224 152.259 224.709 150.773 226.541 150.773C228.373 150.773 229.858 152.259 229.858 154.093Z" fill="#FB7156"/>
<path d="M226.541 177.336L228.752 159.627H224.33L226.541 177.336Z" fill="#FB7156"/>
<path d="M278.265 148.121C278.265 149.954 276.78 151.441 274.948 151.441C273.116 151.441 271.631 149.954 271.631 148.121C271.631 146.287 273.116 144.8 274.948 144.8C276.78 144.8 278.265 146.287 278.265 148.121Z" fill="#FB7156"/>
<path d="M274.948 171.364L277.159 153.655H272.737L274.948 171.364Z" fill="#FB7156"/>
<path d="M334.033 158.521C334.033 160.354 332.548 161.841 330.716 161.841C328.884 161.841 327.399 160.354 327.399 158.521C327.399 156.687 328.884 155.2 330.716 155.2C332.548 155.2 334.033 156.687 334.033 158.521Z" fill="#FB7156"/>
<path d="M330.716 181.764L332.927 164.055H328.505L330.716 181.764Z" fill="#FB7156"/>
<path d="M477.036 91.5863C477.036 93.4202 475.551 94.9068 473.719 94.9068C471.887 94.9068 470.402 93.4202 470.402 91.5863C470.402 89.7525 471.887 88.2659 473.719 88.2659C475.551 88.2659 477.036 89.7525 477.036 91.5863Z" fill="#FB7156"/>
<path d="M473.719 114.829L475.93 97.1204H471.508L473.719 114.829Z" fill="#FB7156"/>
<path d="M475.109 181.713C475.109 183.547 473.624 185.033 471.792 185.033C469.96 185.033 468.475 183.547 468.475 181.713C468.475 179.879 469.96 178.392 471.792 178.392C473.624 178.392 475.109 179.879 475.109 181.713Z" fill="#FB7156"/>
<path d="M471.792 204.956L474.003 187.247H469.581L471.792 204.956Z" fill="#FB7156"/>
<path d="M131.201 168.151C131.201 169.984 129.716 171.471 127.884 171.471C126.052 171.471 124.567 169.984 124.567 168.151C124.567 166.317 126.052 164.83 127.884 164.83C129.716 164.83 131.201 166.317 131.201 168.151Z" fill="#FB7156"/>
<path d="M127.884 191.394L130.095 173.685H125.672L127.884 191.394Z" fill="#FB7156"/>
<path d="M124.062 87.1475C124.062 88.9813 122.577 90.4679 120.745 90.4679C118.913 90.4679 117.428 88.9813 117.428 87.1475C117.428 85.3136 118.913 83.827 120.745 83.827C122.577 83.827 124.062 85.3136 124.062 87.1475Z" fill="#FB7156"/>
<path d="M120.745 110.391L122.956 92.6815H118.534L120.745 110.391Z" fill="#FB7156"/>
<path d="M691.693 160.889C691.693 162.723 690.208 164.209 688.376 164.209C686.544 164.209 685.059 162.723 685.059 160.889C685.059 159.055 686.544 157.568 688.376 157.568C690.208 157.568 691.693 159.055 691.693 160.889Z" fill="#FB7156"/>
<path d="M688.376 184.132L690.587 166.423H686.165L688.376 184.132Z" fill="#FB7156"/>
<path d="M454.331 250.23C454.331 252.064 452.845 253.551 451.014 253.551C449.182 253.551 447.697 252.064 447.697 250.23C447.697 248.397 449.182 246.91 451.014 246.91C452.845 246.91 454.331 248.397 454.331 250.23Z" fill="#FB7156"/>
<path d="M451.014 273.474L453.225 255.765H448.802L451.014 273.474Z" fill="#FB7156"/>
<path d="M63.9702 69.4384C63.9702 71.2722 62.4852 72.7588 60.6533 72.7588C58.8214 72.7588 57.3363 71.2722 57.3363 69.4384C57.3363 67.6045 58.8214 66.1179 60.6533 66.1179C62.4852 66.1179 63.9702 67.6045 63.9702 69.4384Z" fill="#FB7156"/>
<path d="M60.6533 92.6815L62.8646 74.9724H58.442L60.6533 92.6815Z" fill="#FB7156"/>
<g filter="url(#filter0_d_132_468)">
<path d="M353.992 276.453L356.203 258.744H351.781L353.992 276.453Z" fill="#FF4C29"/>
</g>
</g>
<defs>
<filter id="filter0_d_132_468" x="346.781" y="255.744" width="14.4226" height="27.7091" filterUnits="userSpaceOnUse" color-interpolation-filters="sRGB">
<feFlood flood-opacity="0" result="BackgroundImageFix"/>
<feColorMatrix in="SourceAlpha" type="matrix" values="0 0 0 0 0 0 0 0 0 0 0 0 0 0 0 0 0 0 127 0" result="hardAlpha"/>
<feOffset dy="2"/>
<feGaussianBlur stdDeviation="2.5"/>
<feComposite in2="hardAlpha" operator="out"/>
<feColorMatrix type="matrix" values="0 0 0 0 1 0 0 0 0 0.298039 0 0 0 0 0.160784 0 0 0 0.5 0"/>
<feBlend mode="normal" in2="BackgroundImageFix" result="effect1_dropShadow_132_468"/>
<feBlend mode="normal" in="SourceGraphic" in2="effect1_dropShadow_132_468" result="shape"/>
</filter>
<clipPath id="clip0_132_468">
<rect width="810" height="315" fill="white" transform="translate(0 0.581909)"/>
</clipPath>
</defs>
</svg>
